SplineFontDB: 3.2
FontName: FdSymbolA-Book
FullName: FdSymbolA-Book
FamilyName: FdSymbolA
Weight: Book
Copyright: Copyright (c) 2011-2025, Michael Ummels. This Font Software is licensed under the SIL Open Font License, Version 1.1.
Version: 1.010
ItalicAngle: 0
UnderlinePosition: -100
UnderlineWidth: 50
Ascent: 800
Descent: 200
InvalidEm: 0
LayerCount: 2
Layer: 0 0 "Back" 1
Layer: 1 0 "Fore" 0
OS2Version: 0
OS2_WeightWidthSlopeOnly: 0
OS2_UseTypoMetrics: 0
CreationTime: 1739799028
ModificationTime: 1739799028
OS2TypoAscent: 0
OS2TypoAOffset: 1
OS2TypoDescent: 0
OS2TypoDOffset: 1
OS2TypoLinegap: 0
OS2WinAscent: 0
OS2WinAOffset: 1
OS2WinDescent: 0
OS2WinDOffset: 1
HheadAscent: 0
HheadAOffset: 1
HheadDescent: 0
HheadDOffset: 1
OS2Vendor: 'PfEd'
DEI: 91125
Encoding: Custom
UnicodeInterp: none
NameList: AGL For New Fonts
DisplaySize: -48
AntiAlias: 1
FitToEm: 0
BeginPrivate: 2
BlueValues 31 [-10 0 546 556 707 717 754 764]
OtherBlues 11 [-230 -220]
EndPrivate
BeginChars: 256 204

StartChar: dotmath
Encoding: 0 8901 0
Width: 330
Flags: HW
HStem: 225 150<128.9 201.1>
VStem: 90 150<263.9 336.1>
LayerCount: 2
Fore
SplineSet
165 375 m 0
 186 375 240 321 240 300 c 0
 240 279 186 225 165 225 c 0
 144 225 90 279 90 300 c 0
 90 321 144 375 165 375 c 0
EndSplineSet
EndChar

StartChar: sym000
Encoding: 1 -1 1
Width: 660
Flags: HW
HStem: 225 150<128.9 201.1 458.9 531.1>
VStem: 90 150<263.9 336.1> 420 150<263.9 336.1>
LayerCount: 2
Fore
SplineSet
165 375 m 0
 186 375 240 321 240 300 c 0
 240 279 186 225 165 225 c 0
 144 225 90 279 90 300 c 0
 90 321 144 375 165 375 c 0
495 375 m 0
 516 375 570 321 570 300 c 0
 570 279 516 225 495 225 c 0
 474 225 420 279 420 300 c 0
 420 321 474 375 495 375 c 0
EndSplineSet
EndChar

StartChar: uni2236
Encoding: 2 8758 2
Width: 330
Flags: HW
HStem: 60 150<128.9 201.1> 390 150<128.9 201.1>
VStem: 90 150<98.9005 171.1 428.9 501.1>
LayerCount: 2
Fore
SplineSet
165 210 m 0
 186 210 240 156 240 135 c 0
 240 114 186 60 165 60 c 0
 144 60 90 114 90 135 c 0
 90 156 144 210 165 210 c 0
165 540 m 0
 186 540 240 486 240 465 c 0
 240 444 186 390 165 390 c 0
 144 390 90 444 90 465 c 0
 90 486 144 540 165 540 c 0
EndSplineSet
EndChar

StartChar: sym001
Encoding: 3 -1 3
Width: 625
Flags: HW
HStem: 108 150<159.471 232.529> 342 150<392.9 465.633>
VStem: 121 150<145.757 219.633> 354 150<380.367 453.1>
LayerCount: 2
Fore
SplineSet
196 108 m 0
 174 108 121 163 121 183 c 0
 121 198 138 215 151 228 c 0
 164 242 181 258 196 258 c 0
 211 258 228 242 241 228 c 0
 254 215 271 198 271 183 c 0
 271 163 218 108 196 108 c 0
354 417 m 0
 354 438 408 492 429 492 c 0
 444 492 461 475 474 462 c 0
 488 448 504 432 504 417 c 0
 504 402 488 385 474 372 c 0
 461 358 444 342 429 342 c 0
 414 342 398 358 384 372 c 0
 371 385 354 402 354 417 c 0
EndSplineSet
EndChar

StartChar: sym002
Encoding: 4 -1 4
Width: 625
Flags: HW
HStem: 108 150<392.9 465.633> 342 150<159.471 232.529>
VStem: 121 150<380.367 454.243> 354 150<146.9 219.633>
LayerCount: 2
Fore
SplineSet
429 108 m 0
 408 108 354 162 354 183 c 0
 354 198 371 215 384 228 c 0
 398 242 414 258 429 258 c 0
 444 258 461 242 474 228 c 0
 488 215 504 198 504 183 c 0
 504 168 488 152 474 138 c 0
 461 125 444 108 429 108 c 0
196 492 m 0
 218 492 271 437 271 417 c 0
 271 402 254 385 241 372 c 0
 228 358 211 342 196 342 c 0
 181 342 164 358 151 372 c 0
 138 385 121 402 121 417 c 0
 121 437 174 492 196 492 c 0
EndSplineSet
EndChar

StartChar: uni22EF
Encoding: 5 8943 5
Width: 990
Flags: HW
HStem: 225 150<128.9 201.1 458.9 531.1 788.9 861.1>
VStem: 90 150<263.9 336.1> 420 150<263.9 336.1> 750 150<263.9 336.1>
CounterMasks: 1 70
LayerCount: 2
Fore
SplineSet
165 375 m 0
 186 375 240 321 240 300 c 0
 240 279 186 225 165 225 c 0
 144 225 90 279 90 300 c 0
 90 321 144 375 165 375 c 0
495 375 m 0
 516 375 570 321 570 300 c 0
 570 279 516 225 495 225 c 0
 474 225 420 279 420 300 c 0
 420 321 474 375 495 375 c 0
825 375 m 0
 846 375 900 321 900 300 c 0
 900 279 846 225 825 225 c 0
 804 225 750 279 750 300 c 0
 750 321 804 375 825 375 c 0
EndSplineSet
EndChar

StartChar: uni22EE
Encoding: 6 8942 6
Width: 330
Flags: HW
HStem: -105 150<128.9 201.1> 225 150<128.9 201.1> 555 150<128.9 201.1>
VStem: 90 150<-66.0995 6.09952 263.9 336.1 593.9 666.1>
CounterMasks: 1 e0
LayerCount: 2
Fore
SplineSet
165 45 m 0
 186 45 240 -9 240 -30 c 0
 240 -51 186 -105 165 -105 c 0
 144 -105 90 -51 90 -30 c 0
 90 -9 144 45 165 45 c 0
165 375 m 0
 186 375 240 321 240 300 c 0
 240 279 186 225 165 225 c 0
 144 225 90 279 90 300 c 0
 90 321 144 375 165 375 c 0
165 705 m 0
 186 705 240 651 240 630 c 0
 240 609 186 555 165 555 c 0
 144 555 90 609 90 630 c 0
 90 651 144 705 165 705 c 0
EndSplineSet
EndChar

StartChar: uni22F0
Encoding: 7 8944 7
Width: 859
Flags: HW
HStem: -8 150<159.471 232.529> 225 150<391.757 465.633> 458 150<626.367 699.1>
VStem: 121 150<30.3667 104.243> 354 150<263.471 336.529> 588 150<496.9 569.633>
CounterMasks: 1 e0
LayerCount: 2
Fore
SplineSet
196 142 m 0
 218 142 271 87 271 67 c 0
 271 52 254 35 241 22 c 0
 228 8 211 -8 196 -8 c 0
 181 -8 164 8 151 22 c 0
 138 35 121 52 121 67 c 0
 121 87 174 142 196 142 c 0
354 300 m 0
 354 322 409 375 429 375 c 0
 444 375 461 358 474 345 c 0
 488 332 504 315 504 300 c 0
 504 285 488 268 474 255 c 0
 461 242 444 225 429 225 c 0
 409 225 354 278 354 300 c 0
738 533 m 0
 738 512 684 458 663 458 c 0
 648 458 631 475 618 488 c 0
 604 502 588 518 588 533 c 0
 588 548 604 565 618 578 c 0
 631 592 648 608 663 608 c 0
 678 608 694 592 708 578 c 0
 721 565 738 548 738 533 c 0
EndSplineSet
EndChar

StartChar: uni22F1
Encoding: 8 8945 8
Width: 859
Flags: HW
HStem: -8 150<626.367 699.1> 225 150<391.757 465.633> 458 150<159.471 232.529>
VStem: 121 150<495.757 569.633> 354 150<263.471 336.529> 588 150<30.3667 103.1>
CounterMasks: 1 e0
LayerCount: 2
Fore
SplineSet
663 142 m 0
 684 142 738 88 738 67 c 0
 738 52 721 35 708 22 c 0
 694 8 678 -8 663 -8 c 0
 648 -8 631 8 618 22 c 0
 604 35 588 52 588 67 c 0
 588 82 604 98 618 112 c 0
 631 125 648 142 663 142 c 0
354 300 m 0
 354 322 409 375 429 375 c 0
 444 375 461 358 474 345 c 0
 488 332 504 315 504 300 c 0
 504 285 488 268 474 255 c 0
 461 242 444 225 429 225 c 0
 409 225 354 278 354 300 c 0
196 458 m 0
 174 458 121 513 121 533 c 0
 121 548 138 565 151 578 c 0
 164 592 181 608 196 608 c 0
 211 608 228 592 241 578 c 0
 254 565 271 548 271 533 c 0
 271 513 218 458 196 458 c 0
EndSplineSet
EndChar

StartChar: sym003
Encoding: 9 -1 9
Width: 720
Flags: HW
HStem: 33 150<157.367 230.1> 225 150<488.757 562.633> 417 150<157.367 230.1>
VStem: 119 150<71.3667 144.1 455.9 528.633> 451 150<263.471 336.529>
CounterMasks: 1 e0
LayerCount: 2
Fore
SplineSet
451 300 m 0
 451 322 506 375 526 375 c 0
 541 375 558 358 571 345 c 0
 585 332 601 315 601 300 c 0
 601 285 585 268 571 255 c 0
 558 242 541 225 526 225 c 0
 506 225 451 278 451 300 c 0
269 492 m 0
 269 471 215 417 194 417 c 0
 179 417 162 434 149 447 c 0
 135 461 119 477 119 492 c 0
 119 507 135 524 149 537 c 0
 162 551 179 567 194 567 c 0
 209 567 225 551 239 537 c 0
 252 524 269 507 269 492 c 0
194 183 m 0
 215 183 269 129 269 108 c 0
 269 93 252 76 239 63 c 0
 225 49 209 33 194 33 c 0
 179 33 162 49 149 63 c 0
 135 76 119 93 119 108 c 0
 119 123 135 139 149 153 c 0
 162 166 179 183 194 183 c 0
EndSplineSet
EndChar

StartChar: therefore
Encoding: 10 8756 10
Width: 720
Flags: HW
HStem: 59 150<131.367 204.1 515.9 588.633> 391 150<323.471 396.529>
VStem: 93 150<97.3667 170.1> 285 150<428.757 502.633> 477 150<97.3667 170.1>
CounterMasks: 1 38
LayerCount: 2
Fore
SplineSet
360 391 m 0
 338 391 285 446 285 466 c 0
 285 481 302 498 315 511 c 0
 328 525 345 541 360 541 c 0
 375 541 392 525 405 511 c 0
 418 498 435 481 435 466 c 0
 435 446 382 391 360 391 c 0
168 209 m 0
 189 209 243 155 243 134 c 0
 243 119 226 102 213 89 c 0
 199 75 183 59 168 59 c 0
 153 59 136 75 123 89 c 0
 109 102 93 119 93 134 c 0
 93 149 109 165 123 179 c 0
 136 192 153 209 168 209 c 0
477 134 m 0
 477 155 531 209 552 209 c 0
 567 209 584 192 597 179 c 0
 611 165 627 149 627 134 c 0
 627 119 611 102 597 89 c 0
 584 75 567 59 552 59 c 0
 537 59 521 75 507 89 c 0
 494 102 477 119 477 134 c 0
EndSplineSet
EndChar

StartChar: sym004
Encoding: 11 -1 11
Width: 720
Flags: HW
HStem: 33 150<489.9 562.633> 225 150<157.367 231.243> 417 150<489.9 562.633>
VStem: 119 150<263.471 336.529> 451 150<71.3667 144.1 455.9 528.633>
CounterMasks: 1 e0
LayerCount: 2
Fore
SplineSet
194 375 m 0
 214 375 269 322 269 300 c 0
 269 278 214 225 194 225 c 0
 179 225 162 242 149 255 c 0
 135 268 119 285 119 300 c 0
 119 315 135 332 149 345 c 0
 162 358 179 375 194 375 c 0
451 108 m 0
 451 129 505 183 526 183 c 0
 541 183 558 166 571 153 c 0
 585 139 601 123 601 108 c 0
 601 93 585 76 571 63 c 0
 558 49 541 33 526 33 c 0
 511 33 495 49 481 63 c 0
 468 76 451 93 451 108 c 0
526 417 m 0
 505 417 451 471 451 492 c 0
 451 507 468 524 481 537 c 0
 495 551 511 567 526 567 c 0
 541 567 558 551 571 537 c 0
 585 524 601 507 601 492 c 0
 601 477 585 461 571 447 c 0
 558 434 541 417 526 417 c 0
EndSplineSet
EndChar

StartChar: uni2235
Encoding: 12 8757 12
Width: 720
Flags: HW
HStem: 59 150<323.471 396.529> 391 150<131.367 204.1 515.9 588.633>
VStem: 93 150<429.9 502.633> 285 150<97.3667 171.243> 477 150<429.9 502.633>
CounterMasks: 1 38
LayerCount: 2
Fore
SplineSet
360 209 m 0
 382 209 435 154 435 134 c 0
 435 119 418 102 405 89 c 0
 392 75 375 59 360 59 c 0
 345 59 328 75 315 89 c 0
 302 102 285 119 285 134 c 0
 285 154 338 209 360 209 c 0
552 391 m 0
 531 391 477 445 477 466 c 0
 477 481 494 498 507 511 c 0
 521 525 537 541 552 541 c 0
 567 541 584 525 597 511 c 0
 611 498 627 481 627 466 c 0
 627 451 611 435 597 421 c 0
 584 408 567 391 552 391 c 0
243 466 m 0
 243 445 189 391 168 391 c 0
 153 391 136 408 123 421 c 0
 109 435 93 451 93 466 c 0
 93 481 109 498 123 511 c 0
 136 525 153 541 168 541 c 0
 183 541 199 525 213 511 c 0
 226 498 243 481 243 466 c 0
EndSplineSet
EndChar

StartChar: uni2237
Encoding: 13 8759 13
Width: 720
Flags: HW
HStem: 30 150<128.9 201.1 518.9 591.1> 420 150<128.9 201.1 518.9 591.1>
VStem: 90 150<68.9005 141.1 458.9 531.1> 480 150<68.9005 141.1 458.9 531.1>
LayerCount: 2
Fore
SplineSet
555 570 m 0
 576 570 630 516 630 495 c 0
 630 474 576 420 555 420 c 0
 534 420 480 474 480 495 c 0
 480 516 534 570 555 570 c 0
165 570 m 0
 186 570 240 516 240 495 c 0
 240 474 186 420 165 420 c 0
 144 420 90 474 90 495 c 0
 90 516 144 570 165 570 c 0
165 180 m 0
 186 180 240 126 240 105 c 0
 240 84 186 30 165 30 c 0
 144 30 90 84 90 105 c 0
 90 126 144 180 165 180 c 0
555 180 m 0
 576 180 630 126 630 105 c 0
 630 84 576 30 555 30 c 0
 534 30 480 84 480 105 c 0
 480 126 534 180 555 180 c 0
EndSplineSet
EndChar

StartChar: minus
Encoding: 14 8722 14
Width: 720
Flags: HW
HStem: 268 64<90 630>
LayerCount: 2
Fore
SplineSet
630 332 m 1
 630 268 l 1
 90 268 l 1
 90 332 l 1
 630 332 l 1
EndSplineSet
EndChar

StartChar: uni2215
Encoding: 15 8725 15
Width: 720
Flags: HW
LayerCount: 2
Fore
SplineSet
584 570 m 1
 630 524 l 1
 136 30 l 1
 90 76 l 1
 584 570 l 1
EndSplineSet
EndChar

StartChar: uni2216
Encoding: 16 8726 16
Width: 720
Flags: HW
LayerCount: 2
Fore
SplineSet
90 524 m 1
 136 570 l 1
 630 76 l 1
 584 30 l 1
 90 524 l 1
EndSplineSet
EndChar

StartChar: plus
Encoding: 17 43 17
Width: 720
Flags: HW
HStem: 268 64<90 328 392 630>
VStem: 328 64<30 268 332 570>
LayerCount: 2
Fore
SplineSet
328 570 m 1
 392 570 l 1
 392 332 l 1
 630 332 l 1
 630 268 l 1
 392 268 l 1
 392 30 l 1
 328 30 l 1
 328 268 l 1
 90 268 l 1
 90 332 l 1
 328 332 l 1
 328 570 l 1
EndSplineSet
EndChar

StartChar: multiply
Encoding: 18 215 18
Width: 720
Flags: HW
LayerCount: 2
Fore
SplineSet
90 524 m 1
 136 570 l 1
 360 346 l 1
 584 570 l 1
 630 524 l 1
 406 300 l 1
 630 76 l 1
 584 30 l 1
 360 254 l 1
 136 30 l 1
 90 76 l 1
 314 300 l 1
 90 524 l 1
EndSplineSet
EndChar

StartChar: uni2238
Encoding: 19 8760 19
Width: 720
Flags: HW
HStem: 268 64<90 630> 424 112<325.625 394.375>
VStem: 304 112<445.625 514.375>
LayerCount: 2
Fore
SplineSet
90 268 m 1
 90 332 l 1
 630 332 l 1
 630 268 l 1
 90 268 l 1
360 536 m 0
 377 536 416 497 416 480 c 0
 416 463 377 424 360 424 c 0
 343 424 304 463 304 480 c 0
 304 497 343 536 360 536 c 0
EndSplineSet
EndChar

StartChar: uni2A2A
Encoding: 20 10794 20
Width: 720
Flags: HW
HStem: 64 112<325.625 394.375> 268 64<90 630>
VStem: 304 112<85.625 154.375>
LayerCount: 2
Fore
SplineSet
630 332 m 1
 630 268 l 1
 90 268 l 1
 90 332 l 1
 630 332 l 1
360 176 m 0
 377 176 416 137 416 120 c 0
 416 103 377 64 360 64 c 0
 343 64 304 103 304 120 c 0
 304 137 343 176 360 176 c 0
EndSplineSet
EndChar

StartChar: divide
Encoding: 21 247 21
Width: 720
Flags: HW
HStem: 64 112<325.625 394.375> 268 64<90 630> 424 112<325.625 394.375>
VStem: 304 112<85.625 154.375 445.625 514.375>
CounterMasks: 1 e0
LayerCount: 2
Fore
SplineSet
630 332 m 1
 630 268 l 1
 90 268 l 1
 90 332 l 1
 630 332 l 1
360 536 m 0
 377 536 416 497 416 480 c 0
 416 463 377 424 360 424 c 0
 343 424 304 463 304 480 c 0
 304 497 343 536 360 536 c 0
360 176 m 0
 377 176 416 137 416 120 c 0
 416 103 377 64 360 64 c 0
 343 64 304 103 304 120 c 0
 304 137 343 176 360 176 c 0
EndSplineSet
EndChar

StartChar: uni2A2B
Encoding: 22 10795 22
Width: 720
Flags: HW
HStem: 64 112<507.625 576> 268 64<90 630> 424 112<144.375 211.732>
VStem: 122 113<447.131 512.869> 486 112<86.7443 153.256>
CounterMasks: 1 e0
LayerCount: 2
Fore
SplineSet
630 332 m 1
 630 268 l 1
 90 268 l 1
 90 332 l 1
 630 332 l 1
178 536 m 0
 195 536 235 496 235 480 c 0
 235 464 195 424 178 424 c 0
 163 424 122 463 122 480 c 0
 122 497 163 536 178 536 c 0
542 176 m 0
 558 176 598 137 598 120 c 0
 598 103 558 64 542 64 c 0
 525 64 486 103 486 120 c 0
 486 137 525 176 542 176 c 0
EndSplineSet
EndChar

StartChar: uni2A2C
Encoding: 23 10796 23
Width: 720
Flags: HW
HStem: 64 112<144.375 211.732> 268 64<90 630> 424 112<507.625 576>
VStem: 122 113<87.1306 152.869> 486 112<446.744 513.256>
CounterMasks: 1 e0
LayerCount: 2
Fore
SplineSet
630 332 m 1
 630 268 l 1
 90 268 l 1
 90 332 l 1
 630 332 l 1
542 536 m 0
 558 536 598 497 598 480 c 0
 598 463 558 424 542 424 c 0
 525 424 486 463 486 480 c 0
 486 497 525 536 542 536 c 0
178 176 m 0
 195 176 235 136 235 120 c 0
 235 104 195 64 178 64 c 0
 163 64 122 103 122 120 c 0
 122 137 163 176 178 176 c 0
EndSplineSet
EndChar

StartChar: uni223A
Encoding: 24 8762 24
Width: 720
Flags: HW
HStem: 64 112<144.375 211.732 507.625 576> 268 64<90 630> 424 112<144.375 211.732 507.625 576>
VStem: 122 113<87.1306 152.869 447.131 512.869> 486 112<86.7443 153.256 446.744 513.256>
CounterMasks: 1 e0
LayerCount: 2
Fore
SplineSet
630 332 m 1
 630 268 l 1
 90 268 l 1
 90 332 l 1
 630 332 l 1
178 536 m 0
 195 536 235 496 235 480 c 0
 235 464 195 424 178 424 c 0
 163 424 122 463 122 480 c 0
 122 497 163 536 178 536 c 0
542 536 m 0
 558 536 598 497 598 480 c 0
 598 463 558 424 542 424 c 0
 525 424 486 463 486 480 c 0
 486 497 525 536 542 536 c 0
178 176 m 0
 195 176 235 136 235 120 c 0
 235 104 195 64 178 64 c 0
 163 64 122 103 122 120 c 0
 122 137 163 176 178 176 c 0
542 176 m 0
 558 176 598 137 598 120 c 0
 598 103 558 64 542 64 c 0
 525 64 486 103 486 120 c 0
 486 137 525 176 542 176 c 0
EndSplineSet
EndChar

StartChar: plusminus
Encoding: 25 177 25
Width: 720
Flags: HW
HStem: -38 64<90 630> 336 64<90 328 392 630>
VStem: 328 64<97 336 400 638>
LayerCount: 2
Fore
SplineSet
328 638 m 1
 392 638 l 1
 392 400 l 1
 630 400 l 1
 630 336 l 1
 392 336 l 1
 392 97 l 1
 328 97 l 1
 328 336 l 1
 90 336 l 1
 90 400 l 1
 328 400 l 1
 328 638 l 1
630 26 m 1
 630 -38 l 1
 90 -38 l 1
 90 26 l 1
 630 26 l 1
EndSplineSet
EndChar

StartChar: uni2213
Encoding: 26 8723 26
Width: 720
Flags: HW
HStem: 200 64<90 328 392 630> 574 64<90 630>
VStem: 328 64<-38 200 264 503>
LayerCount: 2
Fore
SplineSet
328 503 m 1
 392 503 l 1
 392 264 l 1
 630 264 l 1
 630 200 l 1
 392 200 l 1
 392 -38 l 1
 328 -38 l 1
 328 200 l 1
 90 200 l 1
 90 264 l 1
 328 264 l 1
 328 503 l 1
630 638 m 1
 630 574 l 1
 90 574 l 1
 90 638 l 1
 630 638 l 1
EndSplineSet
EndChar

StartChar: uni2214
Encoding: 27 8724 27
Width: 720
Flags: HW
HStem: 200 64<90 328 392 630> 549 113<327.517 392.483>
VStem: 304 112<571.881 638.869> 328 64<-38 200 264 503>
LayerCount: 2
Fore
SplineSet
328 503 m 1xd0
 392 503 l 1
 392 264 l 1
 630 264 l 1
 630 200 l 1
 392 200 l 1
 392 -38 l 1
 328 -38 l 1
 328 200 l 1
 90 200 l 1
 90 264 l 1
 328 264 l 1
 328 503 l 1xd0
360 662 m 0
 375 662 416 622 416 606 c 0
 416 588 375 549 360 549 c 0
 345 549 304 588 304 606 c 0xe0
 304 622 345 662 360 662 c 0
EndSplineSet
EndChar

StartChar: uni2A25
Encoding: 28 10789 28
Width: 720
Flags: HW
HStem: -62 113<327.517 392.483> 336 64<90 328 392 630>
VStem: 304 112<-38.8694 28.1186> 328 64<97 336 400 638>
LayerCount: 2
Fore
SplineSet
328 638 m 1xd0
 392 638 l 1
 392 400 l 1
 630 400 l 1
 630 336 l 1
 392 336 l 1
 392 97 l 1
 328 97 l 1
 328 336 l 1
 90 336 l 1
 90 400 l 1
 328 400 l 1
 328 638 l 1xd0
360 51 m 0
 375 51 416 12 416 -6 c 0
 416 -22 375 -62 360 -62 c 0
 345 -62 304 -22 304 -6 c 0xe0
 304 12 345 51 360 51 c 0
EndSplineSet
EndChar

StartChar: uni2A30
Encoding: 29 10800 29
Width: 720
Flags: HW
HStem: 522 113<327.517 392.483>
VStem: 304 112<544.881 611.869>
LayerCount: 2
Fore
SplineSet
90 457 m 1
 136 502 l 1
 360 278 l 1
 584 502 l 1
 630 457 l 1
 406 232 l 1
 630 8 l 1
 584 -37 l 1
 360 187 l 1
 136 -37 l 1
 90 8 l 1
 314 232 l 1
 90 457 l 1
360 635 m 0
 375 635 416 595 416 579 c 0
 416 561 375 522 360 522 c 0
 345 522 304 561 304 579 c 0
 304 595 345 635 360 635 c 0
EndSplineSet
EndChar

StartChar: uni2A31
Encoding: 30 10801 30
Width: 720
Flags: HW
HStem: -38 64<90 630>
LayerCount: 2
Fore
SplineSet
90 592 m 1
 136 637 l 1
 360 413 l 1
 584 637 l 1
 630 592 l 1
 406 368 l 1
 630 143 l 1
 584 98 l 1
 360 322 l 1
 136 98 l 1
 90 143 l 1
 314 368 l 1
 90 592 l 1
630 26 m 1
 630 -38 l 1
 90 -38 l 1
 90 26 l 1
 630 26 l 1
EndSplineSet
EndChar

StartChar: uni22C7
Encoding: 31 8903 31
Width: 720
Flags: HW
HStem: 64 112<325.625 394.375> 268 64<90 282 438 630> 424 112<325.625 394.375>
VStem: 304 112<85.625 154.375 445.625 514.375>
CounterMasks: 1 e0
LayerCount: 2
Fore
SplineSet
90 524 m 1
 136 570 l 1
 360 346 l 1
 584 570 l 1
 630 524 l 1
 438 332 l 1
 630 332 l 1
 630 268 l 1
 438 268 l 1
 630 76 l 1
 584 30 l 1
 360 254 l 1
 136 30 l 1
 90 76 l 1
 282 268 l 1
 90 268 l 1
 90 332 l 1
 282 332 l 1
 90 524 l 1
360 536 m 0
 377 536 416 497 416 480 c 0
 416 463 377 424 360 424 c 0
 343 424 304 463 304 480 c 0
 304 497 343 536 360 536 c 0
360 176 m 0
 377 176 416 137 416 120 c 0
 416 103 377 64 360 64 c 0
 343 64 304 103 304 120 c 0
 304 137 343 176 360 176 c 0
EndSplineSet
EndChar

StartChar: logicalnot
Encoding: 32 172 32
Width: 720
Flags: HW
HStem: 268 64<90 566>
VStem: 566 64<88 268>
LayerCount: 2
Fore
SplineSet
90 268 m 1
 90 332 l 1
 630 332 l 1
 630 88 l 1
 566 88 l 1
 566 268 l 1
 90 268 l 1
EndSplineSet
EndChar

StartChar: revlogicalnot
Encoding: 33 8976 33
Width: 720
Flags: HW
HStem: 268 64<154 630>
VStem: 90 64<88 268>
LayerCount: 2
Fore
SplineSet
154 268 m 1
 154 88 l 1
 90 88 l 1
 90 332 l 1
 630 332 l 1
 630 268 l 1
 154 268 l 1
EndSplineSet
EndChar

StartChar: uni2A3C
Encoding: 34 10812 34
Width: 720
Flags: HW
HStem: 268 64<90 566>
VStem: 566 64<332 512>
LayerCount: 2
Fore
SplineSet
90 268 m 1
 90 332 l 1
 566 332 l 1
 566 512 l 1
 630 512 l 1
 630 268 l 1
 90 268 l 1
EndSplineSet
EndChar

StartChar: uni2A3D
Encoding: 35 10813 35
Width: 720
Flags: HW
HStem: 268 64<154 630>
VStem: 90 64<332 512>
LayerCount: 2
Fore
SplineSet
630 268 m 1
 90 268 l 1
 90 512 l 1
 154 512 l 1
 154 332 l 1
 630 332 l 1
 630 268 l 1
EndSplineSet
EndChar

StartChar: uni22CB
Encoding: 36 8907 36
Width: 720
Flags: HW
LayerCount: 2
Fore
SplineSet
630 76 m 1
 584 30 l 1
 360 254 l 1
 136 30 l 1
 90 76 l 1
 314 300 l 1
 90 524 l 1
 136 570 l 1
 630 76 l 1
EndSplineSet
EndChar

StartChar: uni22CC
Encoding: 37 8908 37
Width: 720
Flags: HW
LayerCount: 2
Fore
SplineSet
584 570 m 1
 630 524 l 1
 406 300 l 1
 630 76 l 1
 584 30 l 1
 360 254 l 1
 136 30 l 1
 90 76 l 1
 584 570 l 1
EndSplineSet
EndChar

StartChar: uni2A32
Encoding: 38 10802 38
Width: 720
Flags: HW
HStem: 34 64<203 517>
LayerCount: 2
Fore
SplineSet
607 98 m 1
 590 34 l 1
 130 34 l 1
 113 98 l 1
 315 300 l 1
 90 524 l 1
 136 570 l 1
 360 346 l 1
 584 570 l 1
 630 524 l 1
 405 300 l 1
 607 98 l 1
517 98 m 1
 360 255 l 1
 203 98 l 1
 517 98 l 1
EndSplineSet
EndChar

StartChar: uni22CA
Encoding: 39 8906 39
Width: 720
Flags: HW
HStem: 527 20G<542 626>
VStem: 562 64<143 457>
LayerCount: 2
Fore
SplineSet
562 547 m 1
 626 530 l 1
 626 70 l 1
 562 53 l 1
 360 255 l 1
 136 30 l 1
 90 76 l 1
 314 300 l 1
 90 524 l 1
 136 570 l 1
 360 345 l 1
 562 547 l 1
562 457 m 1
 405 300 l 1
 562 143 l 1
 562 457 l 1
EndSplineSet
EndChar

StartChar: sym005
Encoding: 40 -1 40
Width: 720
Flags: HW
HStem: 502 64<203 517>
LayerCount: 2
Fore
SplineSet
113 502 m 1
 130 566 l 1
 590 566 l 1
 607 502 l 1
 405 300 l 1
 630 76 l 1
 584 30 l 1
 360 254 l 1
 136 30 l 1
 90 76 l 1
 315 300 l 1
 113 502 l 1
203 502 m 1
 360 345 l 1
 517 502 l 1
 203 502 l 1
EndSplineSet
EndChar

StartChar: uni22C9
Encoding: 41 8905 41
Width: 720
Flags: HW
HStem: 527 20G<94 178>
VStem: 94 64<143 457>
LayerCount: 2
Fore
SplineSet
158 53 m 1
 94 70 l 1
 94 530 l 1
 158 547 l 1
 360 345 l 1
 584 570 l 1
 630 524 l 1
 406 300 l 1
 630 76 l 1
 584 30 l 1
 360 255 l 1
 158 53 l 1
158 143 m 1
 315 300 l 1
 158 457 l 1
 158 143 l 1
EndSplineSet
EndChar

StartChar: uni22C8
Encoding: 42 8904 42
Width: 720
Flags: HW
HStem: 527 20G<94 178 542 626>
VStem: 94 64<143 457> 562 64<143 457>
LayerCount: 2
Fore
SplineSet
158 53 m 1
 94 70 l 1
 94 530 l 1
 158 547 l 1
 360 345 l 1
 562 547 l 1
 626 530 l 1
 626 70 l 1
 562 53 l 1
 360 255 l 1
 158 53 l 1
562 457 m 1
 405 300 l 1
 562 143 l 1
 562 457 l 1
158 143 m 1
 315 300 l 1
 158 457 l 1
 158 143 l 1
EndSplineSet
EndChar

StartChar: uni29D6
Encoding: 43 10710 43
Width: 720
Flags: HW
HStem: 34 64<203 517> 502 64<203 517>
LayerCount: 2
Fore
SplineSet
607 98 m 1
 590 34 l 1
 130 34 l 1
 113 98 l 1
 315 300 l 1
 113 502 l 1
 130 566 l 1
 590 566 l 1
 607 502 l 1
 405 300 l 1
 607 98 l 1
203 502 m 1
 360 345 l 1
 517 502 l 1
 203 502 l 1
517 98 m 1
 360 255 l 1
 203 98 l 1
 517 98 l 1
EndSplineSet
EndChar

StartChar: sym006
Encoding: 44 -1 44
Width: 720
Flags: HW
HStem: 268 64<337 630>
LayerCount: 2
Fore
SplineSet
130 539 m 1
 337 332 l 1
 630 332 l 1
 630 268 l 1
 337 268 l 1
 130 61 l 1
 85 106 l 1
 279 300 l 1
 85 494 l 1
 130 539 l 1
EndSplineSet
EndChar

StartChar: sym007
Encoding: 45 -1 45
Width: 720
Flags: HW
VStem: 328 64<277 570>
LayerCount: 2
Fore
SplineSet
121 70 m 1
 328 277 l 1
 328 570 l 1
 392 570 l 1
 392 277 l 1
 599 70 l 1
 554 25 l 1
 360 219 l 1
 166 25 l 1
 121 70 l 1
EndSplineSet
EndChar

StartChar: sym008
Encoding: 46 -1 46
Width: 720
Flags: HW
HStem: 268 64<90 383>
LayerCount: 2
Fore
SplineSet
590 61 m 1
 383 268 l 1
 90 268 l 1
 90 332 l 1
 383 332 l 1
 590 539 l 1
 635 494 l 1
 441 300 l 1
 635 106 l 1
 590 61 l 1
EndSplineSet
EndChar

StartChar: sym009
Encoding: 47 -1 47
Width: 720
Flags: HW
VStem: 328 64<30 323>
LayerCount: 2
Fore
SplineSet
599 530 m 1
 392 323 l 1
 392 30 l 1
 328 30 l 1
 328 323 l 1
 121 530 l 1
 166 575 l 1
 360 381 l 1
 554 575 l 1
 599 530 l 1
EndSplineSet
EndChar

StartChar: logicaland
Encoding: 48 8743 48
Width: 720
Flags: HW
LayerCount: 2
Fore
SplineSet
621 57 m 1
 563 30 l 1
 360 463 l 1
 157 30 l 1
 99 57 l 1
 340 570 l 1
 380 570 l 1
 621 57 l 1
EndSplineSet
EndChar

StartChar: logicalor
Encoding: 49 8744 49
Width: 720
Flags: HW
LayerCount: 2
Fore
SplineSet
99 543 m 1
 157 570 l 1
 360 137 l 1
 563 570 l 1
 621 543 l 1
 380 30 l 1
 340 30 l 1
 99 543 l 1
EndSplineSet
EndChar

StartChar: uni27D1
Encoding: 50 10193 50
Width: 720
Flags: HW
HStem: 64 112<325.625 394.375>
VStem: 304 112<85.625 154.375>
LayerCount: 2
Fore
SplineSet
621 57 m 1
 563 30 l 1
 360 463 l 1
 157 30 l 1
 99 57 l 1
 340 570 l 1
 380 570 l 1
 621 57 l 1
360 176 m 0
 377 176 416 137 416 120 c 0
 416 103 377 64 360 64 c 0
 343 64 304 103 304 120 c 0
 304 137 343 176 360 176 c 0
EndSplineSet
EndChar

StartChar: uni27C7
Encoding: 51 10183 51
Width: 720
Flags: HW
HStem: 424 112<325.625 394.375>
VStem: 304 112<445.625 514.375>
LayerCount: 2
Fore
SplineSet
99 543 m 1
 157 570 l 1
 360 137 l 1
 563 570 l 1
 621 543 l 1
 380 30 l 1
 340 30 l 1
 99 543 l 1
360 536 m 0
 377 536 416 497 416 480 c 0
 416 463 377 424 360 424 c 0
 343 424 304 463 304 480 c 0
 304 497 343 536 360 536 c 0
EndSplineSet
EndChar

StartChar: uni2A55
Encoding: 52 10837 52
Width: 960
Flags: HW
LayerCount: 2
Fore
SplineSet
861 57 m 1
 803 30 l 1
 600 463 l 1
 515 282 l 1
 621 57 l 1
 563 30 l 1
 480 207 l 1
 397 30 l 1
 339 57 l 1
 445 282 l 1
 360 463 l 1
 157 30 l 1
 99 57 l 1
 340 570 l 1
 380 570 l 1
 480 357 l 1
 580 570 l 1
 620 570 l 1
 861 57 l 1
EndSplineSet
EndChar

StartChar: uni2A56
Encoding: 53 10838 53
Width: 960
Flags: HW
LayerCount: 2
Fore
SplineSet
339 543 m 1
 397 570 l 1
 480 393 l 1
 563 570 l 1
 621 543 l 1
 515 318 l 1
 600 137 l 1
 803 570 l 1
 861 543 l 1
 620 30 l 1
 580 30 l 1
 480 243 l 1
 380 30 l 1
 340 30 l 1
 99 543 l 1
 157 570 l 1
 360 137 l 1
 445 318 l 1
 339 543 l 1
EndSplineSet
EndChar

StartChar: uni22CF
Encoding: 54 8911 54
Width: 720
Flags: HW
VStem: 328 64<391.9 570>
LayerCount: 2
Fore
SplineSet
360 350 m 1
 319 229 240 120 144 30 c 1
 100 77 l 1
 231 199 328 359 328 538 c 2
 328 570 l 1
 392 570 l 1
 392 538 l 2
 392 359 489 199 620 77 c 1
 576 30 l 1
 480 120 401 229 360 350 c 1
EndSplineSet
EndChar

StartChar: uni22CE
Encoding: 55 8910 55
Width: 720
Flags: HW
VStem: 328 64<30 208.1>
LayerCount: 2
Fore
SplineSet
360 250 m 1
 401 371 480 480 576 570 c 1
 620 523 l 1
 489 401 392 241 392 62 c 2
 392 30 l 1
 328 30 l 1
 328 62 l 2
 328 241 231 401 100 523 c 1
 144 570 l 1
 240 480 319 371 360 250 c 1
EndSplineSet
EndChar

StartChar: uni22BC
Encoding: 56 8892 56
Width: 720
Flags: HW
HStem: 574 64<90 630>
LayerCount: 2
Fore
SplineSet
621 -10 m 1
 563 -38 l 1
 360 395 l 1
 157 -38 l 1
 99 -10 l 1
 340 503 l 1
 380 503 l 1
 621 -10 l 1
90 574 m 1
 90 638 l 1
 630 638 l 1
 630 574 l 1
 90 574 l 1
EndSplineSet
EndChar

StartChar: uni22BB
Encoding: 57 8891 57
Width: 720
Flags: HW
HStem: -38 64<90 630>
LayerCount: 2
Fore
SplineSet
99 610 m 1
 157 638 l 1
 360 205 l 1
 563 638 l 1
 621 610 l 1
 380 97 l 1
 340 97 l 1
 99 610 l 1
90 -38 m 1
 90 26 l 1
 630 26 l 1
 630 -38 l 1
 90 -38 l 1
EndSplineSet
EndChar

StartChar: uni2A5E
Encoding: 58 10846 58
Width: 720
Flags: HW
HStem: 506 64<90 630> 641 64<90 630>
LayerCount: 2
Fore
SplineSet
621 -78 m 1
 563 -105 l 1
 360 328 l 1
 157 -105 l 1
 99 -78 l 1
 340 435 l 1
 380 435 l 1
 621 -78 l 1
90 506 m 1
 90 570 l 1
 630 570 l 1
 630 506 l 1
 90 506 l 1
90 641 m 1
 90 705 l 1
 630 705 l 1
 630 641 l 1
 90 641 l 1
EndSplineSet
EndChar

StartChar: uni2A63
Encoding: 59 10851 59
Width: 720
Flags: HW
HStem: -105 64<90 630> 30 64<90 630>
LayerCount: 2
Fore
SplineSet
99 678 m 1
 157 705 l 1
 360 272 l 1
 563 705 l 1
 621 678 l 1
 380 165 l 1
 340 165 l 1
 99 678 l 1
90 30 m 1
 90 94 l 1
 630 94 l 1
 630 30 l 1
 90 30 l 1
90 -105 m 1
 90 -41 l 1
 630 -41 l 1
 630 -105 l 1
 90 -105 l 1
EndSplineSet
EndChar

StartChar: union
Encoding: 60 8746 60
Width: 720
Flags: HW
HStem: 30 64<258.978 461.022>
VStem: 90 64<189.552 570> 566 64<189.552 570>
LayerCount: 2
Fore
SplineSet
154 570 m 1
 154 261 l 2
 154 161 253 94 360 94 c 0
 467 94 566 161 566 261 c 2
 566 570 l 1
 630 570 l 1
 630 261 l 2
 630 126 503 30 360 30 c 0
 217 30 90 126 90 261 c 2
 90 570 l 1
 154 570 l 1
EndSplineSet
EndChar

StartChar: intersection
Encoding: 61 8745 61
Width: 720
Flags: HW
HStem: 506 64<258.978 461.022>
VStem: 90 64<30 410.448> 566 64<30 410.448>
LayerCount: 2
Fore
SplineSet
566 30 m 1
 566 339 l 2
 566 439 467 506 360 506 c 0
 253 506 154 439 154 339 c 2
 154 30 l 1
 90 30 l 1
 90 339 l 2
 90 474 217 570 360 570 c 0
 503 570 630 474 630 339 c 2
 630 30 l 1
 566 30 l 1
EndSplineSet
EndChar

StartChar: uni22D3
Encoding: 62 8915 62
Width: 900
Flags: HW
HStem: -60 64<330.791 569.209> 150 64<378.86 521.14>
VStem: 90 64<162.239 660> 281 64<247.484 660> 555 64<247.484 660> 746 64<162.239 660>
LayerCount: 2
Fore
SplineSet
345 660 m 1
 345 296 l 2
 345 246 396 214 450 214 c 0
 504 214 555 246 555 296 c 2
 555 660 l 1
 619 660 l 1
 619 296 l 2
 619 211 539 150 450 150 c 0
 361 150 281 211 281 296 c 2
 281 660 l 1
 345 660 l 1
154 660 m 1
 154 251 l 2
 154 104 295 4 450 4 c 0
 605 4 746 104 746 251 c 2
 746 660 l 1
 810 660 l 1
 810 251 l 2
 810 69 640 -60 450 -60 c 0
 260 -60 90 69 90 251 c 2
 90 660 l 1
 154 660 l 1
EndSplineSet
EndChar

StartChar: uni22D2
Encoding: 63 8914 63
Width: 900
Flags: HW
HStem: 386 64<378.86 521.14> 596 64<330.791 569.209>
VStem: 90 64<-60 437.761> 281 64<-60 352.516> 555 64<-60 352.516> 746 64<-60 437.761>
LayerCount: 2
Fore
SplineSet
555 -60 m 1
 555 304 l 2
 555 354 504 386 450 386 c 0
 396 386 345 354 345 304 c 2
 345 -60 l 1
 281 -60 l 1
 281 304 l 2
 281 389 361 450 450 450 c 0
 539 450 619 389 619 304 c 2
 619 -60 l 1
 555 -60 l 1
746 -60 m 1
 746 349 l 2
 746 496 605 596 450 596 c 0
 295 596 154 496 154 349 c 2
 154 -60 l 1
 90 -60 l 1
 90 349 l 2
 90 531 260 660 450 660 c 0
 640 660 810 531 810 349 c 2
 810 -60 l 1
 746 -60 l 1
EndSplineSet
EndChar

StartChar: uni228D
Encoding: 64 8845 64
Width: 720
Flags: HW
HStem: 30 64<258.978 461.022> 334 112<325.625 394.375>
VStem: 90 64<189.552 570> 304 112<355.625 424.375> 566 64<189.552 570>
CounterMasks: 1 38
LayerCount: 2
Fore
SplineSet
154 570 m 1
 154 261 l 2
 154 161 253 94 360 94 c 0
 467 94 566 161 566 261 c 2
 566 570 l 1
 630 570 l 1
 630 261 l 2
 630 126 503 30 360 30 c 0
 217 30 90 126 90 261 c 2
 90 570 l 1
 154 570 l 1
360 446 m 0
 377 446 416 407 416 390 c 0
 416 373 377 334 360 334 c 0
 343 334 304 373 304 390 c 0
 304 407 343 446 360 446 c 0
EndSplineSet
EndChar

StartChar: uni2A40
Encoding: 65 10816 65
Width: 720
Flags: HW
HStem: 154 112<325.625 394.375> 506 64<258.978 461.022>
VStem: 90 64<30 410.448> 304 112<175.625 244.375> 566 64<30 410.448>
CounterMasks: 1 38
LayerCount: 2
Fore
SplineSet
566 30 m 1
 566 339 l 2
 566 439 467 506 360 506 c 0
 253 506 154 439 154 339 c 2
 154 30 l 1
 90 30 l 1
 90 339 l 2
 90 474 217 570 360 570 c 0
 503 570 630 474 630 339 c 2
 630 30 l 1
 566 30 l 1
360 266 m 0
 377 266 416 227 416 210 c 0
 416 193 377 154 360 154 c 0
 343 154 304 193 304 210 c 0
 304 227 343 266 360 266 c 0
EndSplineSet
EndChar

StartChar: uni228E
Encoding: 66 8846 66
Width: 720
Flags: HW
HStem: 30 64<258.978 461.022> 358 64<238 328 392 482>
VStem: 90 64<189.552 570> 328 64<268 358 422 512> 566 64<189.552 570>
CounterMasks: 1 38
LayerCount: 2
Fore
SplineSet
154 570 m 1
 154 261 l 2
 154 161 253 94 360 94 c 0
 467 94 566 161 566 261 c 2
 566 570 l 1
 630 570 l 1
 630 261 l 2
 630 126 503 30 360 30 c 0
 217 30 90 126 90 261 c 2
 90 570 l 1
 154 570 l 1
328 512 m 1
 392 512 l 1
 392 422 l 1
 482 422 l 1
 482 358 l 1
 392 358 l 1
 392 268 l 1
 328 268 l 1
 328 358 l 1
 238 358 l 1
 238 422 l 1
 328 422 l 1
 328 512 l 1
EndSplineSet
EndChar

StartChar: sym00A
Encoding: 67 -1 67
Width: 720
Flags: HW
HStem: 178 64<238 328 392 482> 506 64<258.978 461.022>
VStem: 90 64<30 410.448> 328 64<88 178 242 332> 566 64<30 410.448>
CounterMasks: 1 38
LayerCount: 2
Fore
SplineSet
566 30 m 1
 566 339 l 2
 566 439 467 506 360 506 c 0
 253 506 154 439 154 339 c 2
 154 30 l 1
 90 30 l 1
 90 339 l 2
 90 474 217 570 360 570 c 0
 503 570 630 474 630 339 c 2
 630 30 l 1
 566 30 l 1
328 332 m 1
 392 332 l 1
 392 242 l 1
 482 242 l 1
 482 178 l 1
 392 178 l 1
 392 88 l 1
 328 88 l 1
 328 178 l 1
 238 178 l 1
 238 242 l 1
 328 242 l 1
 328 332 l 1
EndSplineSet
EndChar

StartChar: uni2294
Encoding: 68 8852 68
Width: 720
Flags: HW
HStem: 30 64<154 566>
VStem: 90 64<94 570> 566 64<94 570>
LayerCount: 2
Fore
SplineSet
90 570 m 1
 154 570 l 1
 154 94 l 1
 566 94 l 1
 566 570 l 1
 630 570 l 1
 630 30 l 1
 90 30 l 1
 90 570 l 1
EndSplineSet
EndChar

StartChar: uni2293
Encoding: 69 8851 69
Width: 720
Flags: HW
HStem: 506 64<154 566>
VStem: 90 64<30 506> 566 64<30 506>
LayerCount: 2
Fore
SplineSet
154 30 m 1
 90 30 l 1
 90 570 l 1
 630 570 l 1
 630 30 l 1
 566 30 l 1
 566 506 l 1
 154 506 l 1
 154 30 l 1
EndSplineSet
EndChar

StartChar: uni2A4F
Encoding: 70 10831 70
Width: 900
Flags: HW
HStem: -60 64<154 746> 131 64<332 568>
VStem: 90 64<4 660> 268 64<195 660> 568 64<195 660> 746 64<4 660>
LayerCount: 2
Fore
SplineSet
90 660 m 1
 154 660 l 1
 154 4 l 1
 746 4 l 1
 746 660 l 1
 810 660 l 1
 810 -60 l 1
 90 -60 l 1
 90 660 l 1
268 660 m 1
 332 660 l 1
 332 195 l 1
 568 195 l 1
 568 660 l 1
 632 660 l 1
 632 131 l 1
 268 131 l 1
 268 660 l 1
EndSplineSet
EndChar

StartChar: uni2A4E
Encoding: 71 10830 71
Width: 900
Flags: HW
HStem: 405 64<332 568> 596 64<154 746>
VStem: 90 64<-60 596> 268 64<-60 405> 568 64<-60 405> 746 64<-60 596>
LayerCount: 2
Fore
SplineSet
154 -60 m 1
 90 -60 l 1
 90 660 l 1
 810 660 l 1
 810 -60 l 1
 746 -60 l 1
 746 596 l 1
 154 596 l 1
 154 -60 l 1
332 -60 m 1
 268 -60 l 1
 268 469 l 1
 632 469 l 1
 632 -60 l 1
 568 -60 l 1
 568 405 l 1
 332 405 l 1
 332 -60 l 1
EndSplineSet
EndChar

StartChar: sym00B
Encoding: 72 -1 72
Width: 720
Flags: HW
HStem: 30 64<154 566> 334 112<325.625 394.375>
VStem: 90 64<94 570> 304 112<355.625 424.375> 566 64<94 570>
CounterMasks: 1 38
LayerCount: 2
Fore
SplineSet
90 570 m 1
 154 570 l 1
 154 94 l 1
 566 94 l 1
 566 570 l 1
 630 570 l 1
 630 30 l 1
 90 30 l 1
 90 570 l 1
360 446 m 0
 377 446 416 407 416 390 c 0
 416 373 377 334 360 334 c 0
 343 334 304 373 304 390 c 0
 304 407 343 446 360 446 c 0
EndSplineSet
EndChar

StartChar: sym00C
Encoding: 73 -1 73
Width: 720
Flags: HW
HStem: 154 112<325.625 394.375> 506 64<154 566>
VStem: 90 64<30 506> 304 112<175.625 244.375> 566 64<30 506>
CounterMasks: 1 38
LayerCount: 2
Fore
SplineSet
154 30 m 1
 90 30 l 1
 90 570 l 1
 630 570 l 1
 630 30 l 1
 566 30 l 1
 566 506 l 1
 154 506 l 1
 154 30 l 1
360 266 m 0
 377 266 416 227 416 210 c 0
 416 193 377 154 360 154 c 0
 343 154 304 193 304 210 c 0
 304 227 343 266 360 266 c 0
EndSplineSet
EndChar

StartChar: sym00D
Encoding: 74 -1 74
Width: 720
Flags: HW
HStem: 30 64<154 566> 358 64<238 328 392 482>
VStem: 90 64<94 570> 328 64<268 358 422 512> 566 64<94 570>
CounterMasks: 1 38
LayerCount: 2
Fore
SplineSet
90 570 m 1
 154 570 l 1
 154 94 l 1
 566 94 l 1
 566 570 l 1
 630 570 l 1
 630 30 l 1
 90 30 l 1
 90 570 l 1
328 512 m 1
 392 512 l 1
 392 422 l 1
 482 422 l 1
 482 358 l 1
 392 358 l 1
 392 268 l 1
 328 268 l 1
 328 358 l 1
 238 358 l 1
 238 422 l 1
 328 422 l 1
 328 512 l 1
EndSplineSet
EndChar

StartChar: sym00E
Encoding: 75 -1 75
Width: 720
Flags: HW
HStem: 178 64<238 328 392 482> 506 64<154 566>
VStem: 90 64<30 506> 328 64<88 178 242 332> 566 64<30 506>
CounterMasks: 1 38
LayerCount: 2
Fore
SplineSet
154 30 m 1
 90 30 l 1
 90 570 l 1
 630 570 l 1
 630 30 l 1
 566 30 l 1
 566 506 l 1
 154 506 l 1
 154 30 l 1
328 332 m 1
 392 332 l 1
 392 242 l 1
 482 242 l 1
 482 178 l 1
 392 178 l 1
 392 88 l 1
 328 88 l 1
 328 178 l 1
 238 178 l 1
 238 242 l 1
 328 242 l 1
 328 332 l 1
EndSplineSet
EndChar

StartChar: uni27D3
Encoding: 76 10195 76
Width: 720
Flags: HW
HStem: 30 64<90 566> 244 112<325.625 394.375>
VStem: 304 112<265.625 334.375> 566 64<94 570>
LayerCount: 2
Fore
SplineSet
90 30 m 1
 90 94 l 1
 566 94 l 1
 566 570 l 1
 630 570 l 1
 630 30 l 1
 90 30 l 1
360 356 m 0
 377 356 416 317 416 300 c 0
 416 283 377 244 360 244 c 0
 343 244 304 283 304 300 c 0
 304 317 343 356 360 356 c 0
EndSplineSet
EndChar

StartChar: uni27D4
Encoding: 77 10196 77
Width: 720
Flags: HW
HStem: 244 112<325.625 394.375> 506 64<154 630>
VStem: 90 64<30 506> 304 112<265.625 334.375>
LayerCount: 2
Fore
SplineSet
630 570 m 1
 630 506 l 1
 154 506 l 1
 154 30 l 1
 90 30 l 1
 90 570 l 1
 630 570 l 1
360 356 m 0
 377 356 416 317 416 300 c 0
 416 283 377 244 360 244 c 0
 343 244 304 283 304 300 c 0
 304 317 343 356 360 356 c 0
EndSplineSet
EndChar

StartChar: uni25B9
Encoding: 78 9657 78
Width: 636
Flags: HW
VStem: 90 64<148 452>
LayerCount: 2
Fore
SplineSet
546 300 m 1
 90 37 l 1
 90 563 l 1
 546 300 l 1
418 300 m 1
 154 452 l 1
 154 148 l 1
 418 300 l 1
EndSplineSet
EndChar

StartChar: uni25B5
Encoding: 79 9653 79
Width: 707
Flags: HW
HStem: 72 64<201 506>
LayerCount: 2
Fore
SplineSet
353 528 m 1
 617 72 l 1
 90 72 l 1
 353 528 l 1
353 400 m 1
 201 136 l 1
 506 136 l 1
 353 400 l 1
EndSplineSet
EndChar

StartChar: uni25C3
Encoding: 80 9667 80
Width: 636
Flags: HW
VStem: 482 64<148 452>
LayerCount: 2
Fore
SplineSet
90 300 m 1
 546 563 l 1
 546 37 l 1
 90 300 l 1
218 300 m 1
 482 148 l 1
 482 452 l 1
 218 300 l 1
EndSplineSet
EndChar

StartChar: uni25BF
Encoding: 81 9663 81
Width: 707
Flags: HW
HStem: 464 64<201 506>
LayerCount: 2
Fore
SplineSet
353 72 m 1
 90 528 l 1
 617 528 l 1
 353 72 l 1
353 200 m 1
 506 464 l 1
 201 464 l 1
 353 200 l 1
EndSplineSet
EndChar

StartChar: uni25B8
Encoding: 82 9656 82
Width: 636
Flags: HW
LayerCount: 2
Fore
SplineSet
546 300 m 1
 90 37 l 1
 90 563 l 1
 546 300 l 1
EndSplineSet
EndChar

StartChar: uni25B4
Encoding: 83 9652 83
Width: 707
Flags: HW
LayerCount: 2
Fore
SplineSet
353 528 m 1
 617 72 l 1
 90 72 l 1
 353 528 l 1
EndSplineSet
EndChar

StartChar: uni25C2
Encoding: 84 9666 84
Width: 636
Flags: HW
LayerCount: 2
Fore
SplineSet
90 300 m 1
 546 563 l 1
 546 37 l 1
 90 300 l 1
EndSplineSet
EndChar

StartChar: uni25BE
Encoding: 85 9662 85
Width: 707
Flags: HW
LayerCount: 2
Fore
SplineSet
353 72 m 1
 90 528 l 1
 617 528 l 1
 353 72 l 1
EndSplineSet
EndChar

StartChar: uni25B7
Encoding: 86 9655 86
Width: 839
Flags: HW
VStem: 90 64<31 569>
LayerCount: 2
Fore
SplineSet
749 300 m 1
 90 -80 l 1
 90 680 l 1
 749 300 l 1
621 300 m 1
 154 569 l 1
 154 31 l 1
 621 300 l 1
EndSplineSet
EndChar

StartChar: uni25B3
Encoding: 87 9651 87
Width: 940
Flags: HW
HStem: -29 64<201 740>
LayerCount: 2
Fore
SplineSet
470 629 m 1
 850 -29 l 1
 90 -29 l 1
 470 629 l 1
470 501 m 1
 201 35 l 1
 740 35 l 1
 470 501 l 1
EndSplineSet
EndChar

StartChar: uni25C1
Encoding: 88 9665 88
Width: 839
Flags: HW
VStem: 685 64<31 569>
LayerCount: 2
Fore
SplineSet
90 300 m 1
 749 680 l 1
 749 -80 l 1
 90 300 l 1
218 300 m 1
 685 31 l 1
 685 569 l 1
 218 300 l 1
EndSplineSet
EndChar

StartChar: uni25BD
Encoding: 89 9661 89
Width: 940
Flags: HW
HStem: 565 64<201 740>
LayerCount: 2
Fore
SplineSet
470 -29 m 1
 90 629 l 1
 850 629 l 1
 470 -29 l 1
470 99 m 1
 740 565 l 1
 201 565 l 1
 470 99 l 1
EndSplineSet
EndChar

StartChar: uni25B6
Encoding: 90 9654 90
Width: 839
Flags: HW
LayerCount: 2
Fore
SplineSet
749 300 m 1
 90 -80 l 1
 90 680 l 1
 749 300 l 1
EndSplineSet
EndChar

StartChar: uni25B2
Encoding: 91 9650 91
Width: 940
Flags: HW
LayerCount: 2
Fore
SplineSet
470 629 m 1
 850 -29 l 1
 90 -29 l 1
 470 629 l 1
EndSplineSet
EndChar

StartChar: uni25C0
Encoding: 92 9664 92
Width: 839
Flags: HW
LayerCount: 2
Fore
SplineSet
90 300 m 1
 749 680 l 1
 749 -80 l 1
 90 300 l 1
EndSplineSet
EndChar

StartChar: uni25BC
Encoding: 93 9660 93
Width: 940
Flags: HW
LayerCount: 2
Fore
SplineSet
470 -29 m 1
 90 629 l 1
 850 629 l 1
 470 -29 l 1
EndSplineSet
EndChar

StartChar: sym00F
Encoding: 94 -1 94
Width: 1226
Flags: HW
HStem: -153 64<201 1025> 733 20G<601.455 624.545>
LayerCount: 2
Fore
SplineSet
613 753 m 1
 1136 -153 l 1
 90 -153 l 1
 613 753 l 1
613 625 m 1
 201 -89 l 1
 1025 -89 l 1
 613 625 l 1
EndSplineSet
EndChar

StartChar: sym010
Encoding: 95 -1 95
Width: 1226
Flags: HW
HStem: 689 64<201 1025>
LayerCount: 2
Fore
SplineSet
613 -153 m 1
 90 753 l 1
 1136 753 l 1
 613 -153 l 1
613 -25 m 1
 1025 689 l 1
 201 689 l 1
 613 -25 l 1
EndSplineSet
EndChar

StartChar: openbullet
Encoding: 96 9702 96
Width: 564
Flags: HW
HStem: 108 64<210.531 353.469> 428 64<210.531 353.469>
VStem: 90 64<228.531 371.469> 410 64<228.531 371.469>
LayerCount: 2
Fore
SplineSet
282 492 m 0
 389 492 474 407 474 300 c 0
 474 193 389 108 282 108 c 0
 175 108 90 193 90 300 c 0
 90 407 175 492 282 492 c 0
282 172 m 0
 354 172 410 228 410 300 c 0
 410 372 354 428 282 428 c 0
 210 428 154 372 154 300 c 0
 154 228 210 172 282 172 c 0
EndSplineSet
EndChar

StartChar: bullet
Encoding: 97 8226 97
Width: 564
Flags: HW
HStem: 108 384<194.168 369.832>
VStem: 90 384<212.168 387.832>
LayerCount: 2
Fore
SplineSet
282 492 m 0
 389 492 474 407 474 300 c 0
 474 193 389 108 282 108 c 0
 175 108 90 193 90 300 c 0
 90 407 175 492 282 492 c 0
EndSplineSet
EndChar

StartChar: circle
Encoding: 98 9675 98
Width: 780
Flags: HW
HStem: 0 64<293.32 486.68> 536 64<293.32 486.68>
VStem: 90 64<203.32 396.68> 626 64<203.32 396.68>
LayerCount: 2
Fore
SplineSet
390 600 m 0
 555 600 690 465 690 300 c 0
 690 135 555 0 390 0 c 0
 225 0 90 135 90 300 c 0
 90 465 225 600 390 600 c 0
390 64 m 0
 521 64 626 169 626 300 c 0
 626 431 521 536 390 536 c 0
 259 536 154 431 154 300 c 0
 154 169 259 64 390 64 c 0
EndSplineSet
EndChar

StartChar: uni25CF
Encoding: 99 9679 99
Width: 780
Flags: HW
HStem: 0 600<280.28 499.72>
VStem: 90 600<190.28 409.72>
LayerCount: 2
Fore
SplineSet
390 600 m 0
 555 600 690 465 690 300 c 0
 690 135 555 0 390 0 c 0
 225 0 90 135 90 300 c 0
 90 465 225 600 390 600 c 0
EndSplineSet
EndChar

StartChar: uni2296
Encoding: 100 8854 100
Width: 780
Flags: HW
HStem: 0 64<292.719 487.281> 268 64<156 624> 536 64<292.719 487.281>
VStem: 90 66<197.124 268 332 402.876> 624 66<197.124 268 332 402.876>
CounterMasks: 1 e0
LayerCount: 2
Fore
SplineSet
624 332 m 1
 608 449 508 536 390 536 c 0
 272 536 172 449 156 332 c 1
 624 332 l 1
156 268 m 1
 172 151 272 64 390 64 c 0
 508 64 608 151 624 268 c 1
 156 268 l 1
390 600 m 0
 555 600 690 465 690 300 c 0
 690 135 555 0 390 0 c 0
 225 0 90 135 90 300 c 0
 90 465 225 600 390 600 c 0
EndSplineSet
EndChar

StartChar: uni29B6
Encoding: 101 10678 101
Width: 780
Flags: HW
HStem: 0 66<287.124 358 422 492.876> 534 66<287.124 358 422 492.876>
VStem: 90 64<202.719 397.281> 358 64<66 534> 626 64<202.719 397.281>
CounterMasks: 1 38
LayerCount: 2
Fore
SplineSet
358 534 m 1
 241 518 154 418 154 300 c 0
 154 182 241 82 358 66 c 1
 358 534 l 1
390 600 m 0
 555 600 690 465 690 300 c 0
 690 135 555 0 390 0 c 0
 225 0 90 135 90 300 c 0
 90 465 225 600 390 600 c 0
422 66 m 1
 539 82 626 182 626 300 c 0
 626 418 539 518 422 534 c 1
 422 66 l 1
EndSplineSet
EndChar

StartChar: uni2298
Encoding: 102 8856 102
Width: 780
Flags: HW
HStem: 0 64<293.117 486.68> 536 64<293.32 486.883>
VStem: 90 64<203.117 396.68> 626 64<203.32 396.883>
LayerCount: 2
Fore
SplineSet
390 536 m 0
 259 536 154 431 154 300 c 0
 154 248 171 198 202 157 c 1
 533 488 l 1
 492 519 442 536 390 536 c 0
390 64 m 0
 521 64 626 169 626 300 c 0
 626 352 609 402 578 443 c 1
 247 112 l 1
 288 81 338 64 390 64 c 0
390 600 m 0
 555 600 690 465 690 300 c 0
 690 135 555 0 390 0 c 0
 225 0 90 135 90 300 c 0
 90 465 225 600 390 600 c 0
EndSplineSet
EndChar

StartChar: uni29B8
Encoding: 103 10680 103
Width: 780
Flags: HW
HStem: 0 64<293.32 486.883> 536 64<293.117 486.68>
VStem: 90 64<203.32 396.883> 626 64<203.117 396.68>
LayerCount: 2
Fore
SplineSet
154 300 m 0
 154 169 259 64 390 64 c 0
 442 64 492 81 533 112 c 1
 202 443 l 1
 171 402 154 352 154 300 c 0
390 600 m 0
 555 600 690 465 690 300 c 0
 690 135 555 0 390 0 c 0
 225 0 90 135 90 300 c 0
 90 465 225 600 390 600 c 0
626 300 m 0
 626 431 521 536 390 536 c 0
 338 536 288 519 247 488 c 1
 578 157 l 1
 609 198 626 248 626 300 c 0
EndSplineSet
EndChar

StartChar: circleplus
Encoding: 104 8853 104
Width: 780
Flags: HW
HStem: 0 66<288.402 358 422 491.598> 268 64<156 358 422 624> 534 66<288.402 358 422 491.598>
VStem: 90 66<198.402 268 332 401.598> 358 64<66 268 332 534> 624 66<198.402 268 332 401.598>
CounterMasks: 1 fc
LayerCount: 2
Fore
SplineSet
358 332 m 1
 358 534 l 1
 253 520 170 437 156 332 c 1
 358 332 l 1
422 332 m 1
 624 332 l 1
 610 437 527 520 422 534 c 1
 422 332 l 1
358 268 m 1
 156 268 l 1
 170 163 253 80 358 66 c 1
 358 268 l 1
422 268 m 1
 422 66 l 1
 527 80 610 163 624 268 c 1
 422 268 l 1
390 600 m 0
 555 600 690 465 690 300 c 0
 690 135 555 0 390 0 c 0
 225 0 90 135 90 300 c 0
 90 465 225 600 390 600 c 0
EndSplineSet
EndChar

StartChar: circlemultiply
Encoding: 105 8855 105
Width: 780
Flags: HW
HStem: 0 64<293.117 486.883> 536 64<293.117 486.883>
VStem: 90 64<203.117 396.883> 626 64<203.117 396.883>
LayerCount: 2
Fore
SplineSet
390 255 m 1
 247 112 l 1
 288 81 338 64 390 64 c 0
 442 64 492 81 533 112 c 1
 390 255 l 1
435 300 m 1
 578 157 l 1
 609 198 626 248 626 300 c 0
 626 352 609 402 578 443 c 1
 435 300 l 1
345 300 m 1
 202 443 l 1
 171 402 154 352 154 300 c 0
 154 248 171 198 202 157 c 1
 345 300 l 1
390 345 m 1
 533 488 l 1
 492 519 442 536 390 536 c 0
 338 536 288 519 247 488 c 1
 390 345 l 1
390 600 m 0
 555 600 690 465 690 300 c 0
 690 135 555 0 390 0 c 0
 225 0 90 135 90 300 c 0
 90 465 225 600 390 600 c 0
EndSplineSet
EndChar

StartChar: uni2299
Encoding: 106 8857 106
Width: 780
Flags: HW
HStem: 0 64<293.32 486.68> 225 150<353.9 426.1> 536 64<293.32 486.68>
VStem: 90 64<203.32 396.68> 315 150<263.9 336.1> 626 64<203.32 396.68>
CounterMasks: 1 fc
LayerCount: 2
Fore
SplineSet
390 600 m 0
 555 600 690 465 690 300 c 0
 690 135 555 0 390 0 c 0
 225 0 90 135 90 300 c 0
 90 465 225 600 390 600 c 0
390 64 m 0
 521 64 626 169 626 300 c 0
 626 431 521 536 390 536 c 0
 259 536 154 431 154 300 c 0
 154 169 259 64 390 64 c 0
390 375 m 0
 411 375 465 321 465 300 c 0
 465 279 411 225 390 225 c 0
 369 225 315 279 315 300 c 0
 315 321 369 375 390 375 c 0
EndSplineSet
EndChar

StartChar: uni229A
Encoding: 107 8858 107
Width: 780
Flags: HW
HStem: 0 64<293.32 486.68> 161 64<338.677 441.323> 375 64<338.677 441.323> 536 64<293.32 486.68>
VStem: 90 64<203.32 396.68> 251 64<248.677 351.323> 465 64<248.677 351.323> 626 64<203.32 396.68>
LayerCount: 2
Fore
SplineSet
390 600 m 0
 555 600 690 465 690 300 c 0
 690 135 555 0 390 0 c 0
 225 0 90 135 90 300 c 0
 90 465 225 600 390 600 c 0
390 64 m 0
 521 64 626 169 626 300 c 0
 626 431 521 536 390 536 c 0
 259 536 154 431 154 300 c 0
 154 169 259 64 390 64 c 0
390 439 m 0
 467 439 529 377 529 300 c 0
 529 223 467 161 390 161 c 0
 313 161 251 223 251 300 c 0
 251 377 313 439 390 439 c 0
390 225 m 0
 431 225 465 259 465 300 c 0
 465 341 431 375 390 375 c 0
 349 375 315 341 315 300 c 0
 315 259 349 225 390 225 c 0
EndSplineSet
EndChar

StartChar: uni229B
Encoding: 108 8859 108
Width: 780
Flags: HW
HStem: 0 67<287.124 350.586 429.414 492.876> 533 67<287.124 350.586 429.414 492.876>
VStem: 90 64<218.667 381.333> 626 64<218.667 381.333>
LayerCount: 2
Fore
SplineSet
414 342 m 1
 572 451 l 1
 551 476 505 520 430 533 c 1
 414 342 l 1
366 342 m 1
 350 533 l 1
 317 527 256 509 208 451 c 1
 366 342 l 1
341 300 m 1
 169 382 l 1
 159 356 154 328 154 300 c 0
 154 272 159 244 169 218 c 1
 341 300 l 1
366 258 m 1
 208 149 l 1
 229 124 275 80 350 67 c 1
 366 258 l 1
414 258 m 1
 430 67 l 1
 463 73 524 91 572 149 c 1
 414 258 l 1
439 300 m 1
 611 218 l 1
 621 244 626 272 626 300 c 0
 626 328 621 356 611 382 c 1
 439 300 l 1
390 600 m 0
 555 600 690 465 690 300 c 0
 690 135 555 0 390 0 c 0
 225 0 90 135 90 300 c 0
 90 465 225 600 390 600 c 0
EndSplineSet
EndChar

StartChar: uni229D
Encoding: 109 8861 109
Width: 780
Flags: HW
HStem: 0 64<293.32 486.68> 268 64<211 569> 536 64<293.32 486.68>
VStem: 90 64<203.32 396.68> 626 64<203.32 396.68>
CounterMasks: 1 e0
LayerCount: 2
Fore
SplineSet
390 600 m 0
 555 600 690 465 690 300 c 0
 690 135 555 0 390 0 c 0
 225 0 90 135 90 300 c 0
 90 465 225 600 390 600 c 0
390 64 m 0
 521 64 626 169 626 300 c 0
 626 431 521 536 390 536 c 0
 259 536 154 431 154 300 c 0
 154 169 259 64 390 64 c 0
211 268 m 1
 211 332 l 1
 569 332 l 1
 569 268 l 1
 211 268 l 1
EndSplineSet
EndChar

StartChar: uni229C
Encoding: 110 8860 110
Width: 780
Flags: HW
HStem: 0 64<293.32 486.68> 196 64<211 569> 340 64<211 569> 536 64<293.32 486.68>
VStem: 90 64<203.32 396.68> 626 64<203.32 396.68>
LayerCount: 2
Fore
SplineSet
390 600 m 0
 555 600 690 465 690 300 c 0
 690 135 555 0 390 0 c 0
 225 0 90 135 90 300 c 0
 90 465 225 600 390 600 c 0
390 64 m 0
 521 64 626 169 626 300 c 0
 626 431 521 536 390 536 c 0
 259 536 154 431 154 300 c 0
 154 169 259 64 390 64 c 0
211 340 m 1
 211 404 l 1
 569 404 l 1
 569 340 l 1
 211 340 l 1
211 196 m 1
 211 260 l 1
 569 260 l 1
 569 196 l 1
 211 196 l 1
EndSplineSet
EndChar

StartChar: emptyset
Encoding: 111 8709 111
Width: 780
Flags: HW
HStem: 0 64<292.585 486.68> 536 64<293.32 487.415>
VStem: 90 64<202.585 396.68> 626 64<203.32 397.415>
LayerCount: 2
Fore
SplineSet
390 536 m 0
 259 536 154 431 154 300 c 0
 154 248 171 198 202 157 c 1
 533 488 l 1
 492 519 442 536 390 536 c 0
390 64 m 0
 521 64 626 169 626 300 c 0
 626 352 609 402 578 443 c 1
 247 112 l 1
 288 81 338 64 390 64 c 0
90 300 m 0
 90 465 225 600 390 600 c 0
 459 600 525 576 578 533 c 1
 643 598 l 1
 688 553 l 1
 623 488 l 1
 666 435 690 369 690 300 c 0
 690 135 555 0 390 0 c 0
 321 0 255 24 202 67 c 1
 137 2 l 1
 92 47 l 1
 157 112 l 1
 114 165 90 231 90 300 c 0
EndSplineSet
EndChar

StartChar: uni29B0
Encoding: 112 10672 112
Width: 780
Flags: HW
HStem: 0 64<293.32 487.415> 536 64<292.585 486.68>
VStem: 90 64<203.32 397.415> 626 64<202.585 396.68>
LayerCount: 2
Fore
SplineSet
154 300 m 0
 154 169 259 64 390 64 c 0
 442 64 492 81 533 112 c 1
 202 443 l 1
 171 402 154 352 154 300 c 0
626 300 m 0
 626 431 521 536 390 536 c 0
 338 536 288 519 247 488 c 1
 578 157 l 1
 609 198 626 248 626 300 c 0
390 600 m 0
 555 600 690 465 690 300 c 0
 690 231 666 165 623 112 c 1
 688 47 l 1
 643 2 l 1
 578 67 l 1
 525 24 459 0 390 0 c 0
 225 0 90 135 90 300 c 0
 90 369 114 435 157 488 c 1
 92 553 l 1
 137 598 l 1
 202 533 l 1
 255 576 321 600 390 600 c 0
EndSplineSet
EndChar

StartChar: uni25EF
Encoding: 113 9711 113
Width: 1044
Flags: HW
HStem: -132 64<404.18 639.82> 668 64<404.18 639.82>
VStem: 90 64<182.18 417.82> 890 64<182.18 417.82>
LayerCount: 2
Fore
SplineSet
522 732 m 0
 759 732 954 537 954 300 c 0
 954 63 759 -132 522 -132 c 0
 285 -132 90 63 90 300 c 0
 90 537 285 732 522 732 c 0
522 -68 m 0
 725 -68 890 97 890 300 c 0
 890 503 725 668 522 668 c 0
 319 668 154 503 154 300 c 0
 154 97 319 -68 522 -68 c 0
EndSplineSet
EndChar

StartChar: uni2B24
Encoding: 114 11044 114
Width: 1044
Flags: HW
HStem: -132 864<394.126 649.874>
VStem: 90 864<172.126 427.874>
LayerCount: 2
Fore
SplineSet
522 732 m 0
 759 732 954 537 954 300 c 0
 954 63 759 -132 522 -132 c 0
 285 -132 90 63 90 300 c 0
 90 537 285 732 522 732 c 0
EndSplineSet
EndChar

StartChar: uni25AB
Encoding: 115 9643 115
Width: 519
Flags: HW
HStem: 130 64<154 365> 406 64<154 365>
VStem: 90 64<194 406> 365 64<194 406>
LayerCount: 2
Fore
SplineSet
429 470 m 1
 429 130 l 1
 90 130 l 1
 90 470 l 1
 429 470 l 1
365 406 m 1
 154 406 l 1
 154 194 l 1
 365 194 l 1
 365 406 l 1
EndSplineSet
EndChar

StartChar: uni25AA
Encoding: 116 9642 116
Width: 519
Flags: HW
HStem: 130 340<90 429>
VStem: 90 339<130 470>
LayerCount: 2
Fore
SplineSet
429 470 m 1
 429 130 l 1
 90 130 l 1
 90 470 l 1
 429 470 l 1
EndSplineSet
EndChar

StartChar: uni25A1
Encoding: 117 9633 117
Width: 710
Flags: HW
HStem: 35 64<154 556> 501 64<154 556>
VStem: 90 64<99 501> 556 64<99 501>
LayerCount: 2
Fore
SplineSet
620 565 m 1
 620 35 l 1
 90 35 l 1
 90 565 l 1
 620 565 l 1
556 501 m 1
 154 501 l 1
 154 99 l 1
 556 99 l 1
 556 501 l 1
EndSplineSet
EndChar

StartChar: uni25A0
Encoding: 118 9632 118
Width: 710
Flags: HW
HStem: 35 530<90 620>
VStem: 90 530<35 565>
LayerCount: 2
Fore
SplineSet
620 565 m 1
 620 35 l 1
 90 35 l 1
 90 565 l 1
 620 565 l 1
EndSplineSet
EndChar

StartChar: uni229F
Encoding: 119 8863 119
Width: 710
Flags: HW
HStem: 35 64<154 556> 268 64<154 556> 501 64<154 556>
VStem: 90 64<99 268 332 501> 556 64<99 268 332 501>
CounterMasks: 1 e0
LayerCount: 2
Fore
SplineSet
556 268 m 1
 154 268 l 1
 154 99 l 1
 556 99 l 1
 556 268 l 1
620 565 m 1
 620 35 l 1
 90 35 l 1
 90 565 l 1
 620 565 l 1
556 501 m 1
 154 501 l 1
 154 332 l 1
 556 332 l 1
 556 501 l 1
EndSplineSet
EndChar

StartChar: uni25EB
Encoding: 120 9707 120
Width: 710
Flags: HW
HStem: 35 64<154 323 387 556> 501 64<154 323 387 556>
VStem: 90 64<99 501> 323 64<99 501> 556 64<99 501>
CounterMasks: 1 38
LayerCount: 2
Fore
SplineSet
323 99 m 1
 323 501 l 1
 154 501 l 1
 154 99 l 1
 323 99 l 1
387 99 m 1
 556 99 l 1
 556 501 l 1
 387 501 l 1
 387 99 l 1
620 565 m 1
 620 35 l 1
 90 35 l 1
 90 565 l 1
 620 565 l 1
EndSplineSet
EndChar

StartChar: uni29C4
Encoding: 121 10692 121
Width: 710
Flags: HW
HStem: 35 64<200 556> 501 64<154 511>
VStem: 90 64<144 501> 556 64<99 456>
LayerCount: 2
Fore
SplineSet
154 144 m 1
 511 501 l 1
 154 501 l 1
 154 144 l 1
556 456 m 1
 200 99 l 1
 556 99 l 1
 556 456 l 1
620 565 m 1
 620 35 l 1
 90 35 l 1
 90 565 l 1
 620 565 l 1
EndSplineSet
EndChar

StartChar: uni29C5
Encoding: 122 10693 122
Width: 710
Flags: HW
HStem: 35 64<154 511> 501 64<200 556>
VStem: 90 64<99 456> 556 64<144 501>
LayerCount: 2
Fore
SplineSet
511 99 m 1
 154 456 l 1
 154 99 l 1
 511 99 l 1
556 144 m 1
 556 501 l 1
 200 501 l 1
 556 144 l 1
620 565 m 1
 620 35 l 1
 90 35 l 1
 90 565 l 1
 620 565 l 1
EndSplineSet
EndChar

StartChar: uni229E
Encoding: 123 8862 123
Width: 710
Flags: HW
HStem: 35 64<154 323 387 556> 268 64<154 323 387 556> 501 64<154 323 387 556>
VStem: 90 64<99 268 332 501> 323 64<99 268 332 501> 556 64<99 268 332 501>
CounterMasks: 1 fc
LayerCount: 2
Fore
SplineSet
323 268 m 1
 154 268 l 1
 154 99 l 1
 323 99 l 1
 323 268 l 1
387 268 m 1
 387 99 l 1
 556 99 l 1
 556 268 l 1
 387 268 l 1
323 332 m 1
 323 501 l 1
 154 501 l 1
 154 332 l 1
 323 332 l 1
387 332 m 1
 556 332 l 1
 556 501 l 1
 387 501 l 1
 387 332 l 1
620 565 m 1
 620 35 l 1
 90 35 l 1
 90 565 l 1
 620 565 l 1
EndSplineSet
EndChar

StartChar: uni22A0
Encoding: 124 8864 124
Width: 710
Flags: HW
HStem: 35 64<200 511> 501 64<200 511>
VStem: 90 64<144 456> 556 64<144 456>
LayerCount: 2
Fore
SplineSet
355 255 m 1
 200 99 l 1
 511 99 l 1
 355 255 l 1
400 300 m 1
 556 144 l 1
 556 456 l 1
 400 300 l 1
310 300 m 1
 154 456 l 1
 154 144 l 1
 310 300 l 1
355 345 m 1
 511 501 l 1
 200 501 l 1
 355 345 l 1
620 565 m 1
 620 35 l 1
 90 35 l 1
 90 565 l 1
 620 565 l 1
EndSplineSet
EndChar

StartChar: uni22A1
Encoding: 125 8865 125
Width: 710
Flags: HW
HStem: 35 64<154 556> 225 150<317.757 391.633> 501 64<154 556>
VStem: 90 64<99 501> 280 150<263.471 336.529> 556 64<99 501>
CounterMasks: 1 fc
LayerCount: 2
Fore
SplineSet
620 565 m 1
 620 35 l 1
 90 35 l 1
 90 565 l 1
 620 565 l 1
556 501 m 1
 154 501 l 1
 154 99 l 1
 556 99 l 1
 556 501 l 1
280 300 m 0
 280 322 335 375 355 375 c 0
 370 375 387 358 400 345 c 0
 414 332 430 315 430 300 c 0
 430 285 414 268 400 255 c 0
 387 242 370 225 355 225 c 0
 335 225 280 278 280 300 c 0
EndSplineSet
EndChar

StartChar: uni29C8
Encoding: 126 10696 126
Width: 710
Flags: HW
HStem: 35 64<154 556> 181 51<288 423> 368 51<288 423> 501 64<154 556>
VStem: 90 64<99 501> 236 52<232 368> 423 51<232 368> 556 64<99 501>
LayerCount: 2
Fore
SplineSet
620 565 m 1
 620 35 l 1
 90 35 l 1
 90 565 l 1
 620 565 l 1
556 501 m 1
 154 501 l 1
 154 99 l 1
 556 99 l 1
 556 501 l 1
474 419 m 1
 474 181 l 1
 236 181 l 1
 236 419 l 1
 474 419 l 1
423 368 m 1
 288 368 l 1
 288 232 l 1
 423 232 l 1
 423 368 l 1
EndSplineSet
EndChar

StartChar: uni2B1C
Encoding: 127 11036 127
Width: 944
Flags: HW
HStem: -82 64<154 790> 618 64<154 790>
VStem: 90 64<-18 618> 790 64<-18 618>
LayerCount: 2
Fore
SplineSet
854 682 m 1
 854 -82 l 1
 90 -82 l 1
 90 682 l 1
 854 682 l 1
790 618 m 1
 154 618 l 1
 154 -18 l 1
 790 -18 l 1
 790 618 l 1
EndSplineSet
EndChar

StartChar: uni2B1B
Encoding: 128 11035 128
Width: 944
Flags: HW
HStem: -82 764<90 854>
VStem: 90 764<-82 682>
LayerCount: 2
Fore
SplineSet
854 682 m 1
 854 -82 l 1
 90 -82 l 1
 90 682 l 1
 854 682 l 1
EndSplineSet
EndChar

StartChar: uni22C4
Encoding: 129 8900 129
Width: 660
Flags: HW
HStem: 533 20G<310 350>
LayerCount: 2
Fore
SplineSet
330 553 m 1
 583 300 l 1
 330 47 l 1
 77 300 l 1
 330 553 l 1
330 463 m 1
 167 300 l 1
 330 137 l 1
 493 300 l 1
 330 463 l 1
EndSplineSet
EndChar

StartChar: uni2B29
Encoding: 130 11049 130
Width: 660
Flags: HW
HStem: 533 20G<310 350>
LayerCount: 2
Fore
SplineSet
330 553 m 1
 583 300 l 1
 330 47 l 1
 77 300 l 1
 330 553 l 1
EndSplineSet
EndChar

StartChar: uni25C7
Encoding: 131 9671 131
Width: 930
Flags: HW
LayerCount: 2
Fore
SplineSet
465 688 m 1
 853 300 l 1
 465 -88 l 1
 77 300 l 1
 465 688 l 1
465 598 m 1
 167 300 l 1
 465 2 l 1
 763 300 l 1
 465 598 l 1
EndSplineSet
EndChar

StartChar: uni25C6
Encoding: 132 9670 132
Width: 930
Flags: HW
LayerCount: 2
Fore
SplineSet
465 688 m 1
 853 300 l 1
 465 -88 l 1
 77 300 l 1
 465 688 l 1
EndSplineSet
EndChar

StartChar: sym011
Encoding: 133 -1 133
Width: 930
Flags: HW
HStem: 268 64<199 731>
LayerCount: 2
Fore
SplineSet
731 268 m 1
 199 268 l 1
 465 2 l 1
 731 268 l 1
731 332 m 1
 465 598 l 1
 199 332 l 1
 731 332 l 1
465 688 m 1
 853 300 l 1
 465 -88 l 1
 77 300 l 1
 465 688 l 1
EndSplineSet
EndChar

StartChar: sym012
Encoding: 134 -1 134
Width: 930
Flags: HW
VStem: 433 64<34 566>
LayerCount: 2
Fore
SplineSet
433 34 m 1
 433 566 l 1
 167 300 l 1
 433 34 l 1
497 566 m 1
 497 34 l 1
 763 300 l 1
 497 566 l 1
465 688 m 1
 853 300 l 1
 465 -88 l 1
 77 300 l 1
 465 688 l 1
EndSplineSet
EndChar

StartChar: sym013
Encoding: 135 -1 135
Width: 930
Flags: HW
LayerCount: 2
Fore
SplineSet
636 426 m 1
 338 128 l 1
 465 2 l 1
 763 300 l 1
 636 426 l 1
465 688 m 1
 853 300 l 1
 465 -88 l 1
 77 300 l 1
 465 688 l 1
465 598 m 1
 167 300 l 1
 294 174 l 1
 592 472 l 1
 465 598 l 1
EndSplineSet
EndChar

StartChar: sym014
Encoding: 136 -1 136
Width: 930
Flags: HW
LayerCount: 2
Fore
SplineSet
592 128 m 1
 294 426 l 1
 167 300 l 1
 465 2 l 1
 592 128 l 1
636 174 m 1
 763 300 l 1
 465 598 l 1
 338 472 l 1
 636 174 l 1
465 688 m 1
 853 300 l 1
 465 -88 l 1
 77 300 l 1
 465 688 l 1
EndSplineSet
EndChar

StartChar: sym015
Encoding: 137 -1 137
Width: 930
Flags: HW
HStem: 268 64<199 433 497 731>
VStem: 433 64<34 268 332 566>
LayerCount: 2
Fore
SplineSet
433 268 m 1
 199 268 l 1
 433 34 l 1
 433 268 l 1
497 268 m 1
 497 34 l 1
 731 268 l 1
 497 268 l 1
433 332 m 1
 433 566 l 1
 199 332 l 1
 433 332 l 1
497 332 m 1
 731 332 l 1
 497 566 l 1
 497 332 l 1
465 688 m 1
 853 300 l 1
 465 -88 l 1
 77 300 l 1
 465 688 l 1
EndSplineSet
EndChar

StartChar: sym016
Encoding: 138 -1 138
Width: 930
Flags: HW
LayerCount: 2
Fore
SplineSet
465 255 m 1
 338 128 l 1
 465 2 l 1
 592 128 l 1
 465 255 l 1
510 300 m 1
 636 174 l 1
 763 300 l 1
 636 426 l 1
 510 300 l 1
420 300 m 1
 294 426 l 1
 167 300 l 1
 294 174 l 1
 420 300 l 1
465 345 m 1
 592 472 l 1
 465 598 l 1
 338 472 l 1
 465 345 l 1
465 688 m 1
 853 300 l 1
 465 -88 l 1
 77 300 l 1
 465 688 l 1
EndSplineSet
EndChar

StartChar: uni27D0
Encoding: 139 10192 139
Width: 930
Flags: HW
HStem: 225 150<428.9 501.1>
VStem: 390 150<263.9 336.1>
LayerCount: 2
Fore
SplineSet
465 688 m 1
 853 300 l 1
 465 -88 l 1
 77 300 l 1
 465 688 l 1
465 598 m 1
 167 300 l 1
 465 2 l 1
 763 300 l 1
 465 598 l 1
465 375 m 0
 486 375 540 321 540 300 c 0
 540 279 486 225 465 225 c 0
 444 225 390 279 390 300 c 0
 390 321 444 375 465 375 c 0
EndSplineSet
EndChar

StartChar: sym017
Encoding: 140 -1 140
Width: 930
Flags: HW
LayerCount: 2
Fore
SplineSet
465 688 m 1
 853 300 l 1
 465 -88 l 1
 77 300 l 1
 465 688 l 1
465 598 m 1
 167 300 l 1
 465 2 l 1
 763 300 l 1
 465 598 l 1
465 473 m 1
 638 300 l 1
 465 127 l 1
 292 300 l 1
 465 473 l 1
465 401 m 1
 364 300 l 1
 465 199 l 1
 566 300 l 1
 465 401 l 1
EndSplineSet
EndChar

StartChar: uni2B2B
Encoding: 141 11051 141
Width: 580
Flags: HW
LayerCount: 2
Fore
SplineSet
90 300 m 1
 290 620 l 1
 490 300 l 1
 290 -20 l 1
 90 300 l 1
165 300 m 1
 290 101 l 1
 415 300 l 1
 290 499 l 1
 165 300 l 1
EndSplineSet
EndChar

StartChar: uni2B2A
Encoding: 142 11050 142
Width: 580
Flags: HW
LayerCount: 2
Fore
SplineSet
90 300 m 1
 290 620 l 1
 490 300 l 1
 290 -20 l 1
 90 300 l 1
EndSplineSet
EndChar

StartChar: lozenge
Encoding: 143 9674 143
Width: 710
Flags: HW
LayerCount: 2
Fore
SplineSet
90 300 m 1
 355 724 l 1
 620 300 l 1
 355 -124 l 1
 90 300 l 1
165 300 m 1
 355 -4 l 1
 545 300 l 1
 355 604 l 1
 165 300 l 1
EndSplineSet
EndChar

StartChar: uni29EB
Encoding: 144 10731 144
Width: 710
Flags: HW
LayerCount: 2
Fore
SplineSet
90 300 m 1
 355 724 l 1
 620 300 l 1
 355 -124 l 1
 90 300 l 1
EndSplineSet
EndChar

StartChar: uni27E0
Encoding: 145 10208 145
Width: 710
Flags: HW
HStem: 268 64<185 525>
LayerCount: 2
Fore
SplineSet
525 268 m 1
 185 268 l 1
 355 -4 l 1
 525 268 l 1
185 332 m 1
 525 332 l 1
 355 604 l 1
 185 332 l 1
90 300 m 1
 355 724 l 1
 620 300 l 1
 355 -124 l 1
 90 300 l 1
EndSplineSet
EndChar

StartChar: uni2B52
Encoding: 146 11090 146
Width: 780
Flags: HW
HStem: 1 21G<201.053 223.676 556.324 578.947> 327 50<223 312 468 557>
LayerCount: 2
Fore
SplineSet
390 602 m 1
 468 377 l 1
 706 372 l 1
 516 229 l 1
 585 1 l 1
 390 137 l 1
 195 1 l 1
 264 229 l 1
 74 372 l 1
 312 377 l 1
 390 602 l 1
390 446 m 1
 349 327 l 1
 223 324 l 1
 323 248 l 1
 287 127 l 1
 390 199 l 1
 493 127 l 1
 457 248 l 1
 557 324 l 1
 431 327 l 1
 390 446 l 1
EndSplineSet
EndChar

StartChar: uni22C6
Encoding: 147 8902 147
Width: 660
Flags: HW
HStem: 527 20G<323.043 336.957>
LayerCount: 2
Fore
SplineSet
330 547 m 1
 394 363 l 1
 589 359 l 1
 433 242 l 1
 490 55 l 1
 330 166 l 1
 170 55 l 1
 227 242 l 1
 71 359 l 1
 266 363 l 1
 330 547 l 1
EndSplineSet
EndChar

StartChar: uni2B50
Encoding: 148 11088 148
Width: 930
Flags: HW
HStem: 332 63<263 369 561 667>
LayerCount: 2
Fore
SplineSet
465 670 m 1
 561 395 l 1
 852 389 l 1
 620 213 l 1
 704 -66 l 1
 465 100 l 1
 226 -66 l 1
 310 213 l 1
 78 389 l 1
 369 395 l 1
 465 670 l 1
465 475 m 1
 415 332 l 1
 263 329 l 1
 384 237 l 1
 340 91 l 1
 465 178 l 1
 590 91 l 1
 546 237 l 1
 667 329 l 1
 515 332 l 1
 465 475 l 1
EndSplineSet
EndChar

StartChar: uni2B51
Encoding: 149 11089 149
Width: 930
Flags: HW
LayerCount: 2
Fore
SplineSet
465 670 m 1
 561 395 l 1
 852 389 l 1
 620 213 l 1
 704 -66 l 1
 465 100 l 1
 226 -66 l 1
 310 213 l 1
 78 389 l 1
 369 395 l 1
 465 670 l 1
EndSplineSet
EndChar

StartChar: uni2606
Encoding: 150 9734 150
Width: 1260
Flags: HW
HStem: 365 60<271 444.75 815.25 989> 370 63<271 496 764 989>
LayerCount: 2
Fore
SplineSet
630 820 m 1x40
 764 433 l 1x40
 1174 425 l 1
 848 177 l 1
 966 -215 l 1
 630 19 l 1
 294 -215 l 1
 412 177 l 1
 86 425 l 1x80
 496 433 l 1
 630 820 l 1x40
630 625 m 1
 541 370 l 1x40
 271 365 l 1
 487 201 l 1
 408 -57 l 1
 630 97 l 1
 852 -57 l 1
 773 201 l 1
 989 365 l 1x80
 719 370 l 1
 630 625 l 1
EndSplineSet
EndChar

StartChar: uni2605
Encoding: 151 9733 151
Width: 1260
Flags: HW
LayerCount: 2
Fore
SplineSet
630 820 m 1
 764 433 l 1
 1174 425 l 1
 848 177 l 1
 966 -215 l 1
 630 19 l 1
 294 -215 l 1
 412 177 l 1
 86 425 l 1
 496 433 l 1
 630 820 l 1
EndSplineSet
EndChar

StartChar: asteriskmath
Encoding: 152 8727 152
Width: 660
Flags: HW
LayerCount: 2
Fore
SplineSet
380 300 m 1
 559 217 l 1
 517 143 l 1
 355 257 l 1
 373 60 l 1
 287 60 l 1
 305 257 l 1
 143 143 l 1
 101 217 l 1
 280 300 l 1
 101 383 l 1
 143 457 l 1
 305 343 l 1
 287 540 l 1
 373 540 l 1
 355 343 l 1
 517 457 l 1
 559 383 l 1
 380 300 l 1
EndSplineSet
EndChar

StartChar: infinity
Encoding: 153 8734 153
Width: 1044
Flags: HW
HStem: 88 64<215.385 353.87 690.13 828.615> 448 64<215.385 353.87 690.13 828.615>
VStem: 90 64<218.838 381.162> 890 64<218.838 381.162>
LayerCount: 2
Fore
SplineSet
566 300 m 1
 624 233 674 152 762 152 c 0
 837 152 890 222 890 300 c 0
 890 378 837 448 762 448 c 0
 674 448 624 367 566 300 c 1
522 347 m 1
 593 423 659 512 762 512 c 0
 872 512 954 414 954 300 c 0
 954 186 872 88 762 88 c 0
 659 88 593 177 522 253 c 1
 451 177 385 88 282 88 c 0
 172 88 90 186 90 300 c 0
 90 414 172 512 282 512 c 0
 385 512 451 423 522 347 c 1
478 300 m 1
 420 367 370 448 282 448 c 0
 207 448 154 378 154 300 c 0
 154 222 207 152 282 152 c 0
 370 152 420 233 478 300 c 1
EndSplineSet
EndChar

StartChar: proportional
Encoding: 154 8733 154
Width: 948
Flags: HW
HStem: 88 64<218.213 356.832 701.226 858> 448 64<218.213 356.832 701.226 858>
VStem: 90 64<218.618 381.382>
LayerCount: 2
Fore
SplineSet
478 300 m 1
 421 366 373 448 286 448 c 0
 210 448 154 379 154 300 c 0
 154 221 210 152 286 152 c 0
 373 152 421 234 478 300 c 1
858 512 m 1
 858 448 l 1
 778 448 l 2
 687 448 629 368 567 300 c 1
 629 232 687 152 778 152 c 2
 858 152 l 1
 858 88 l 1
 778 88 l 2
 671 88 597 175 522 253 c 1
 452 177 388 88 286 88 c 0
 175 88 90 186 90 300 c 0
 90 414 175 512 286 512 c 0
 388 512 452 423 522 347 c 1
 597 425 671 512 778 512 c 2
 858 512 l 1
EndSplineSet
EndChar

StartChar: sym018
Encoding: 155 -1 155
Width: 948
Flags: HW
HStem: 88 64<90 246.774 591.168 729.787> 448 64<90 246.774 591.168 729.787>
VStem: 794 64<218.618 381.382>
LayerCount: 2
Fore
SplineSet
470 300 m 1
 527 234 575 152 662 152 c 0
 738 152 794 221 794 300 c 0
 794 379 738 448 662 448 c 0
 575 448 527 366 470 300 c 1
90 88 m 1
 90 152 l 1
 170 152 l 2
 261 152 319 232 381 300 c 1
 319 368 261 448 170 448 c 2
 90 448 l 1
 90 512 l 1
 170 512 l 2
 277 512 351 425 426 347 c 1
 496 423 560 512 662 512 c 0
 773 512 858 414 858 300 c 0
 858 186 773 88 662 88 c 0
 560 88 496 177 426 253 c 1
 351 175 277 88 170 88 c 2
 90 88 l 1
EndSplineSet
EndChar

StartChar: sym019
Encoding: 156 -1 156
Width: 852
Flags: HW
HStem: 88 64<90 246.774 605.226 762> 448 64<90 246.774 605.226 762>
LayerCount: 2
Fore
SplineSet
90 512 m 1
 170 512 l 2
 277 512 351 424 426 346 c 1
 501 424 575 512 682 512 c 2
 762 512 l 1
 762 448 l 1
 682 448 l 2
 591 448 533 368 471 300 c 1
 533 232 591 152 682 152 c 2
 762 152 l 1
 762 88 l 1
 682 88 l 2
 575 88 501 176 426 254 c 1
 351 176 277 88 170 88 c 2
 90 88 l 1
 90 152 l 1
 170 152 l 2
 261 152 319 232 381 300 c 1
 319 368 261 448 170 448 c 2
 90 448 l 1
 90 512 l 1
EndSplineSet
EndChar

StartChar: uni226C
Encoding: 157 8812 157
Width: 424
Flags: HW
VStem: 90 64<177.995 422.005> 270 64<177.995 422.005>
LayerCount: 2
Fore
SplineSet
212 499 m 1
 176 439 154 371 154 300 c 0
 154 229 176 161 212 101 c 1
 248 161 270 229 270 300 c 0
 270 371 248 439 212 499 c 1
322 -26 m 1
 282 -75 l 1
 257 -54 233 -31 212 -7 c 1
 191 -31 167 -54 142 -75 c 1
 102 -26 l 1
 128 -5 151 19 172 45 c 1
 121 120 90 208 90 300 c 0
 90 392 121 480 172 555 c 1
 151 581 128 605 102 626 c 1
 142 675 l 1
 167 654 191 631 212 607 c 1
 233 631 257 654 282 675 c 1
 322 626 l 1
 296 605 273 581 252 555 c 1
 303 480 334 392 334 300 c 0
 334 208 303 120 252 45 c 1
 273 19 296 -5 322 -26 c 1
EndSplineSet
EndChar

StartChar: uni22BA
Encoding: 158 8890 158
Width: 540
Flags: HW
HStem: -220 21G<238 302> 482 64<90 238 302 450>
VStem: 238 64<-220 482>
LayerCount: 2
Fore
SplineSet
302 -220 m 1
 238 -220 l 1
 238 482 l 1
 90 482 l 1
 90 546 l 1
 450 546 l 1
 450 482 l 1
 302 482 l 1
 302 -220 l 1
EndSplineSet
EndChar

StartChar: uni2240
Encoding: 159 8768 159
Width: 364
Flags: HW
VStem: 90 64<115.427 241.007> 210 64<358.993 484.573>
LayerCount: 2
Fore
SplineSet
146 530 m 1
 182 570 l 1
 227 530 274 484 274 424 c 0
 274 369 244 319 205 278 c 0
 178 249 154 215 154 176 c 0
 154 133 185 99 218 70 c 1
 182 30 l 1
 137 70 90 116 90 176 c 0
 90 231 120 281 159 322 c 0
 186 351 210 385 210 424 c 0
 210 467 179 501 146 530 c 1
EndSplineSet
EndChar

StartChar: angle
Encoding: 160 8736 160
Width: 720
Flags: HW
HStem: 30 64<162 630>
LayerCount: 2
Fore
SplineSet
630 94 m 1
 630 30 l 1
 95 30 l 1
 76 94 l 1
 498 562 l 1
 546 519 l 1
 162 94 l 1
 630 94 l 1
EndSplineSet
EndChar

StartChar: uni29A3
Encoding: 161 10659 161
Width: 720
Flags: HW
HStem: 30 64<90 558>
LayerCount: 2
Fore
SplineSet
90 94 m 1
 558 94 l 1
 174 519 l 1
 222 562 l 1
 644 94 l 1
 625 30 l 1
 90 30 l 1
 90 94 l 1
EndSplineSet
EndChar

StartChar: uni2221
Encoding: 162 8737 162
Width: 720
Flags: HW
HStem: 30 64<162 416 478.813 630>
VStem: 416 65<94 183.4>
LayerCount: 2
Fore
SplineSet
416 94 m 1
 409 165 381 231 333 283 c 1
 162 94 l 1
 416 94 l 1
630 94 m 1
 630 30 l 1
 95 30 l 1
 76 94 l 1
 498 562 l 1
 546 519 l 1
 376 331 l 1
 437 267 474 183 481 94 c 1
 630 94 l 1
EndSplineSet
EndChar

StartChar: uni299B
Encoding: 163 10651 163
Width: 720
Flags: HW
HStem: 30 64<90 241.187 304 558>
VStem: 239 65<94 183.4>
LayerCount: 2
Fore
SplineSet
387 283 m 1
 339 231 311 165 304 94 c 1
 558 94 l 1
 387 283 l 1
344 331 m 1
 174 519 l 1
 222 562 l 1
 644 94 l 1
 625 30 l 1
 90 30 l 1
 90 94 l 1
 239 94 l 1
 246 183 283 267 344 331 c 1
EndSplineSet
EndChar

StartChar: uni2222
Encoding: 164 8738 164
Width: 720
Flags: HW
VStem: 468 64<201.289 398.711>
LayerCount: 2
Fore
SplineSet
439 186 m 1
 459 221 468 261 468 300 c 0
 468 339 459 379 439 414 c 1
 197 300 l 1
 439 186 l 1
603 561 m 1
 630 503 l 1
 497 441 l 1
 520 397 532 348 532 300 c 0
 532 252 520 203 497 159 c 1
 630 97 l 1
 603 39 l 1
 90 280 l 1
 90 320 l 1
 603 561 l 1
EndSplineSet
EndChar

StartChar: uni29A1
Encoding: 165 10657 165
Width: 720
Flags: HW
HStem: 408 64<261.289 458.711>
LayerCount: 2
Fore
SplineSet
474 379 m 1
 439 399 399 408 360 408 c 0
 321 408 281 399 246 379 c 1
 360 137 l 1
 474 379 l 1
99 543 m 1
 157 570 l 1
 219 437 l 1
 263 460 312 472 360 472 c 0
 408 472 457 460 501 437 c 1
 563 570 l 1
 621 543 l 1
 380 30 l 1
 340 30 l 1
 99 543 l 1
EndSplineSet
EndChar

StartChar: uni29A0
Encoding: 166 10656 166
Width: 720
Flags: HW
VStem: 188 64<201.289 398.711>
LayerCount: 2
Fore
SplineSet
281 414 m 1
 261 379 252 339 252 300 c 0
 252 261 261 221 281 186 c 1
 523 300 l 1
 281 414 l 1
117 39 m 1
 90 97 l 1
 223 159 l 1
 200 203 188 252 188 300 c 0
 188 348 200 397 223 441 c 1
 90 503 l 1
 117 561 l 1
 630 320 l 1
 630 280 l 1
 117 39 l 1
EndSplineSet
EndChar

StartChar: sym01A
Encoding: 167 -1 167
Width: 720
Flags: HW
HStem: 128 64<261.289 458.711>
LayerCount: 2
Fore
SplineSet
246 221 m 1
 281 201 321 192 360 192 c 0
 399 192 439 201 474 221 c 1
 360 463 l 1
 246 221 l 1
621 57 m 1
 563 30 l 1
 501 163 l 1
 457 140 408 128 360 128 c 0
 312 128 263 140 219 163 c 1
 157 30 l 1
 99 57 l 1
 340 570 l 1
 380 570 l 1
 621 57 l 1
EndSplineSet
EndChar

StartChar: uni221F
Encoding: 168 8735 168
Width: 720
Flags: HW
HStem: 30 64<154 630>
VStem: 90 64<94 570>
LayerCount: 2
Fore
SplineSet
90 570 m 1
 154 570 l 1
 154 94 l 1
 630 94 l 1
 630 30 l 1
 90 30 l 1
 90 570 l 1
EndSplineSet
EndChar

StartChar: uni22BE
Encoding: 169 8894 169
Width: 720
Flags: HW
HStem: 30 64<154 376 440 630> 316 64<154 245.747>
VStem: 90 64<94 316 380 570> 376 64<94 185.747>
LayerCount: 2
Fore
SplineSet
376 94 m 1
 376 216 276 316 154 316 c 1
 154 94 l 1
 376 94 l 1
90 570 m 1
 154 570 l 1
 154 380 l 1
 312 380 440 252 440 94 c 1
 630 94 l 1
 630 30 l 1
 90 30 l 1
 90 570 l 1
EndSplineSet
EndChar

StartChar: uni299C
Encoding: 170 10652 170
Width: 720
Flags: HW
HStem: 30 64<154 328 392 630> 268 64<154 328>
VStem: 90 64<94 268 332 570> 328 64<94 268>
LayerCount: 2
Fore
SplineSet
328 268 m 1
 154 268 l 1
 154 94 l 1
 328 94 l 1
 328 268 l 1
90 570 m 1
 154 570 l 1
 154 332 l 1
 392 332 l 1
 392 94 l 1
 630 94 l 1
 630 30 l 1
 90 30 l 1
 90 570 l 1
EndSplineSet
EndChar

StartChar: uni299D
Encoding: 171 10653 171
Width: 720
Flags: HW
HStem: 30 64<154 376 440 630> 143 75<212.419 270.141> 316 64<154 245.747>
VStem: 90 64<94 316 380 570> 204 75<151.714 209.333> 376 64<94 185.747>
LayerCount: 2
Fore
SplineSet
376 94 m 1
 376 216 276 316 154 316 c 1
 154 94 l 1
 376 94 l 1
90 570 m 1
 154 570 l 1
 154 380 l 1
 312 380 440 252 440 94 c 1
 630 94 l 1
 630 30 l 1
 90 30 l 1
 90 570 l 1
241 218 m 0
 253 218 279 190 279 181 c 0
 279 171 253 143 241 143 c 0
 231 143 204 170 204 181 c 0
 204 191 231 218 241 218 c 0
EndSplineSet
EndChar

StartChar: minute
Encoding: 172 8242 172
Width: 244
Flags: HW
VStem: 60 184
LayerCount: 2
Fore
SplineSet
244 603 m 1
 145 67 l 1
 60 67 l 1
 120 603 l 1
 244 603 l 1
EndSplineSet
EndChar

StartChar: uni2035
Encoding: 173 8245 173
Width: 244
Flags: HW
VStem: 0 184
LayerCount: 2
Fore
SplineSet
0 603 m 1
 124 603 l 1
 184 67 l 1
 99 67 l 1
 0 603 l 1
EndSplineSet
EndChar

StartChar: product.small
Encoding: 174 -1 174
Width: 720
Flags: HW
HStem: 30 39<97 144.458 257.836 306 414 462.164 575.542 623> 506 64<245 475> 530 40<92 147.564 572.436 628>
VStem: 157 88<83.6557 505.526> 475 88<83.6557 505.526>
LayerCount: 2
Fore
SplineSet
97 30 m 1xd8
 90 69 l 1
 119 77 157 87 157 104 c 2
 157 496 l 2
 157 513 120 523 92 530 c 1
 90 570 l 1
 630 570 l 1
 628 530 l 1xb8
 600 523 563 513 563 496 c 2
 563 104 l 2
 563 87 601 77 630 69 c 1
 623 30 l 1
 414 30 l 1
 407 69 l 1
 436 77 475 87 475 104 c 2
 475 506 l 1
 245 506 l 1
 245 104 l 2
 245 87 284 77 313 69 c 1
 306 30 l 1
 97 30 l 1xd8
EndSplineSet
EndChar

StartChar: product.sf.small
Encoding: 175 -1 175
Width: 720
Flags: HW
HStem: 485 85<90 161 246 474 559 630>
VStem: 161 85<30 485> 474 85<30 485>
LayerCount: 2
Fore
SplineSet
161 30 m 1
 161 485 l 1
 90 485 l 1
 90 570 l 1
 630 570 l 1
 630 485 l 1
 559 485 l 1
 559 30 l 1
 474 30 l 1
 474 485 l 1
 246 485 l 1
 246 30 l 1
 161 30 l 1
EndSplineSet
EndChar

StartChar: uni2A3F
Encoding: 176 10815 176
Width: 720
Flags: HW
HStem: 30 64<245 475> 30 40<92 147.564 572.436 628> 531 39<97 144.458 257.836 306 414 462.164 575.542 623>
VStem: 157 88<94.4736 516.344> 475 88<94.4736 516.344>
LayerCount: 2
Fore
SplineSet
97 570 m 1x78
 306 570 l 1
 313 531 l 1
 284 523 245 513 245 496 c 2
 245 94 l 1
 475 94 l 1xb8
 475 496 l 2
 475 513 436 523 407 531 c 1
 414 570 l 1
 623 570 l 1
 630 531 l 1
 601 523 563 513 563 496 c 2
 563 104 l 2
 563 87 600 77 628 70 c 1
 630 30 l 1
 90 30 l 1
 92 70 l 1
 120 77 157 87 157 104 c 2
 157 496 l 2
 157 513 119 523 90 531 c 1
 97 570 l 1x78
EndSplineSet
EndChar

StartChar: uni2A3F.sf
Encoding: 177 -1 177
Width: 720
Flags: HW
HStem: 30 85<90 161 246 474 559 630>
VStem: 161 85<115 570> 474 85<115 570>
LayerCount: 2
Fore
SplineSet
161 570 m 1
 246 570 l 1
 246 115 l 1
 474 115 l 1
 474 570 l 1
 559 570 l 1
 559 115 l 1
 630 115 l 1
 630 30 l 1
 90 30 l 1
 90 115 l 1
 161 115 l 1
 161 570 l 1
EndSplineSet
EndChar

StartChar: integral.small
Encoding: 178 -1 178
Width: 482
Flags: HW
HStem: 0 71<127 183.284> 684 70<292.835 354.484>
VStem: 198 85<83.1262 676.219>
LayerCount: 2
Fore
SplineSet
373 749 m 1
 355 679 l 1
 344 683 333 684 323 684 c 0
 290 684 283 643 283 606 c 2
 283 153 l 2
 283 68 215 0 131 -0 c 0
 130 0 128 0 127 0 c 1
 117 71 l 1
 150 71 l 2
 185 71 198 113 198 153 c 2
 198 606 l 2
 198 687 260 754 338 754 c 0
 339 754 340 754 341 754 c 0
 352 754 363 752 373 749 c 1
EndSplineSet
EndChar

StartChar: uni2713
Encoding: 179 10003 179
Width: 904
Flags: HW
HStem: 0 21G<227.391 363> 734 20G<792.5 813.81>
LayerCount: 2
Fore
SplineSet
90 279 m 1
 164 321 l 1
 280 102 l 1
 392 336 509 574 708 741 c 0
 724 754 775 754 810 754 c 1
 814 733 l 1
 791 722 769 708 749 692 c 0
 536 513 424 250 302 0 c 1
 238 0 l 1
 90 279 l 1
EndSplineSet
EndChar

StartChar: uni21AF
Encoding: 180 8623 180
Width: 604
Flags: HW
HStem: 530 20G<439.625 504.893>
LayerCount: 2
Fore
SplineSet
185 -104 m 1
 106 74 l 1
 165 100 l 1
 199 22 l 1
 362 443 l 1
 150 386 l 1
 374 942 l 1
 464 910 l 1
 276 486 l 1
 514 550 l 1
 264 1 l 1
 337 33 l 1
 363 -25 l 1
 185 -104 l 1
EndSplineSet
EndChar

StartChar: uni2662
Encoding: 181 9826 181
Width: 780
Flags: HW
HStem: 0 21G<345 435> 687 20G<345 435>
LayerCount: 2
Fore
SplineSet
390 0 m 1
 300 126 200 245 90 354 c 1
 200 462 300 581 390 707 c 1
 480 581 580 462 690 354 c 1
 580 245 480 126 390 0 c 1
390 99 m 1
 454 190 527 275 606 354 c 1
 527 432 454 517 390 608 c 1
 326 517 253 432 174 354 c 1
 253 275 326 190 390 99 c 1
EndSplineSet
EndChar

StartChar: diamond
Encoding: 182 9830 182
Width: 780
Flags: HW
HStem: 0 21G<345 435> 687 20G<345 435>
LayerCount: 2
Fore
SplineSet
390 0 m 1
 300 126 200 245 90 354 c 1
 200 462 300 581 390 707 c 1
 480 581 580 462 690 354 c 1
 580 245 480 126 390 0 c 1
EndSplineSet
EndChar

StartChar: uni2661
Encoding: 183 9825 183
Width: 840
Flags: HW
HStem: 0 21G<358.5 481.5> 643 64<197.605 320.916 519.084 642.395>
VStem: 90 64<417.845 597.791> 686 64<417.845 597.791>
LayerCount: 2
Fore
SplineSet
420 0 m 1
 297 176 90 312 90 530 c 0
 90 627 165 707 260 707 c 0
 323 707 375 664 420 619 c 1
 465 664 517 707 580 707 c 0
 675 707 750 627 750 530 c 0
 750 312 543 176 420 0 c 1
420 98 m 1
 538 233 686 351 686 530 c 0
 686 591 640 643 580 643 c 0
 534 643 498 607 465 573 c 2
 420 528 l 1
 375 573 l 2
 342 607 306 643 260 643 c 0
 200 643 154 591 154 530 c 0
 154 351 302 233 420 98 c 1
EndSplineSet
EndChar

StartChar: heart
Encoding: 184 9829 184
Width: 840
Flags: HW
HStem: 0 21G<358.5 481.5> 687 20G<212.5 291.5 548.5 627.5>
VStem: 90 660<415.219 614.034>
LayerCount: 2
Fore
SplineSet
420 0 m 1
 297 176 90 312 90 530 c 0
 90 627 165 707 260 707 c 0
 323 707 375 664 420 619 c 1
 465 664 517 707 580 707 c 0
 675 707 750 627 750 530 c 0
 750 312 543 176 420 0 c 1
EndSplineSet
EndChar

StartChar: spade
Encoding: 185 9824 185
Width: 780
Flags: HW
HStem: 0 21G<300 480> 687 20G<345.5 434.5>
VStem: 89 602<195.731 376.681>
LayerCount: 2
Fore
SplineSet
552 117 m 0
 492 117 461 158 450 178 c 1
 480 0 l 1
 300 0 l 1
 330 178 l 1
 299 124 250 117 228 117 c 0
 153 117 89 188 89 284 c 0
 89 464 301 553 390 707 c 1
 479 553 691 464 691 284 c 0
 691 188 627 117 552 117 c 0
EndSplineSet
EndChar

StartChar: club
Encoding: 186 9827 186
Width: 840
Flags: HW
HStem: 0 21G<330 510> 687 20G<374 466>
VStem: 90 660<214.964 376.518> 255 330<459.358 624.518>
LayerCount: 2
Fore
SplineSet
585 459 m 0xd0
 677 459 750 386 750 294 c 0xe0
 750 202 674 129 585 129 c 0
 549 129 514 141 485 163 c 1
 510 0 l 1
 330 0 l 1
 355 163 l 1
 326 141 291 129 255 129 c 0xd0
 166 129 90 202 90 294 c 0xe0
 90 386 163 459 255 459 c 0
 263 459 270 458 278 457 c 1
 263 482 255 512 255 542 c 0
 255 634 328 707 420 707 c 0
 512 707 585 634 585 542 c 0
 585 512 577 482 562 457 c 1
 570 458 577 459 585 459 c 0xd0
EndSplineSet
EndChar

StartChar: uni2720
Encoding: 187 10016 187
Width: 930
Flags: HW
HStem: 268 64<401 433 497 529>
VStem: 433 64<236 268 332 364>
LayerCount: 2
Fore
SplineSet
653 675 m 1
 497 364 l 1
 497 332 l 1
 529 332 l 1
 840 488 l 1
 840 112 l 1
 529 268 l 1
 497 268 l 1
 497 236 l 1
 653 -75 l 1
 278 -75 l 1
 433 236 l 1
 433 268 l 1
 401 268 l 1
 90 112 l 1
 90 488 l 1
 401 332 l 1
 433 332 l 1
 433 364 l 1
 278 675 l 1
 653 675 l 1
EndSplineSet
EndChar

StartChar: uni2721
Encoding: 188 10017 188
Width: 930
Flags: HW
HStem: 84 51<179 310 399 531 620 751> 465 51<179 310 399 531 620 751>
LayerCount: 2
Fore
SplineSet
310 135 m 1
 245 249 l 1
 179 135 l 1
 310 135 l 1
685 249 m 1
 620 135 l 1
 751 135 l 1
 685 249 l 1
531 516 m 1
 465 631 l 1
 399 516 l 1
 531 516 l 1
656 300 m 1
 561 465 l 1
 369 465 l 1
 274 300 l 1
 369 135 l 1
 561 135 l 1
 656 300 l 1
685 351 m 1
 751 465 l 1
 620 465 l 1
 685 351 l 1
310 465 m 1
 179 465 l 1
 245 351 l 1
 310 465 l 1
465 -133 m 1
 340 84 l 1
 90 84 l 1
 215 300 l 1
 90 516 l 1
 340 516 l 1
 465 733 l 1
 590 516 l 1
 840 516 l 1
 715 300 l 1
 840 84 l 1
 590 84 l 1
 465 -133 l 1
465 -31 m 1
 531 84 l 1
 399 84 l 1
 465 -31 l 1
EndSplineSet
EndChar

StartChar: uni2314
Encoding: 189 8980 189
Width: 720
Flags: HW
HStem: 504 64<233.886 486.114>
LayerCount: 2
Fore
SplineSet
537 460 m 1
 482 489 421 504 360 504 c 0
 299 504 238 489 183 460 c 1
 360 130 l 1
 537 460 l 1
567 516 m 2
 623 486 l 1
 379 30 l 1
 341 30 l 1
 97 486 l 1
 153 516 l 2
 217 550 289 568 360 568 c 0
 431 568 503 550 567 516 c 2
EndSplineSet
EndChar

StartChar: universal
Encoding: 190 8704 190
Width: 780
Flags: HW
HStem: 0 21G<325.211 454.789> 392 64<275 505> 687 20G<92 174.773 605.227 688>
LayerCount: 2
Fore
SplineSet
505 392 m 1
 275 392 l 1
 390 53 l 1
 505 392 l 1
92 707 m 1
 168 707 l 1
 253 456 l 1
 527 456 l 1
 612 707 l 1
 688 707 l 1
 448 0 l 1
 332 0 l 1
 92 707 l 1
EndSplineSet
EndChar

StartChar: existential
Encoding: 191 8707 191
Width: 660
Flags: HW
HStem: 0 64<90 490> 322 64<145 490> 643 64<90 490>
VStem: 490 80<64 322 386 643>
LayerCount: 2
Fore
SplineSet
90 0 m 1
 90 64 l 1
 490 64 l 1
 490 322 l 1
 145 322 l 1
 145 386 l 1
 490 386 l 1
 490 643 l 1
 90 643 l 1
 90 707 l 1
 570 707 l 1
 570 0 l 1
 90 0 l 1
EndSplineSet
EndChar

StartChar: uni2204
Encoding: 192 8708 192
Width: 660
Flags: HW
HStem: -0 64<90 186 262 490> 322 64<145 272 348 490> 643 64<90 358 434 490>
VStem: 490 80<64 322 386 643>
LayerCount: 2
Fore
SplineSet
348 386 m 1
 490 386 l 1
 490 643 l 1
 417 643 l 1
 348 386 l 1
262 64 m 1
 490 64 l 1
 490 322 l 1
 331 322 l 1
 262 64 l 1
409 833 m 1
 464 819 l 1
 434 707 l 1
 570 707 l 1
 570 0 l 1
 490 0 l 1
 245 -0 l 1
 211 -126 l 1
 156 -112 l 1
 186 0 l 1
 90 0 l 1
 90 64 l 1
 203 64 l 1
 272 322 l 1
 145 322 l 1
 145 386 l 1
 289 386 l 1
 358 643 l 1
 90 643 l 1
 90 707 l 1
 375 707 l 1
 409 833 l 1
EndSplineSet
EndChar

StartChar: uni2132
Encoding: 193 8498 193
Width: 660
Flags: HW
HStem: 0 64<90 490> 322 64<145 490> 687 20G<490 570>
VStem: 490 80<64 322 386 707>
LayerCount: 2
Fore
SplineSet
90 0 m 1
 90 64 l 1
 490 64 l 1
 490 322 l 1
 145 322 l 1
 145 386 l 1
 490 386 l 1
 490 707 l 1
 570 707 l 1
 570 0 l 1
 90 0 l 1
EndSplineSet
EndChar

StartChar: uni2141
Encoding: 194 8513 194
Width: 780
Flags: HW
HStem: -8 80<224.153 434.968> 268 64<170 330> 556 21G<122.061 161.5> 627 80<216.898 431.681>
VStem: 90 80<109.976 268> 610 80<245.225 453.013>
LayerCount: 2
Fore
SplineSet
610 354 m 0
 610 507 477 627 322 627 c 0
 254 627 187 601 136 556 c 1
 90 622 l 1
 155 677 237 707 322 707 c 0
 524 707 690 550 690 354 c 0
 690 154 529 -8 330 -8 c 0
 241 -8 156 25 90 85 c 1
 90 332 l 1
 330 332 l 1
 330 268 l 1
 170 268 l 1
 170 123 l 1
 217 90 273 72 330 72 c 0
 485 72 610 198 610 354 c 0
EndSplineSet
EndChar

StartChar: uni2201
Encoding: 195 8705 195
Width: 600
Flags: HW
HStem: 0 80<227.057 372.943> 627 80<227.057 372.943>
VStem: 90 80<132.965 574.035> 430 80<132.965 197 510 574.035>
LayerCount: 2
Fore
SplineSet
510 510 m 1
 430 510 l 1
 430 577 370 627 300 627 c 0
 230 627 170 577 170 510 c 2
 170 197 l 2
 170 130 230 80 300 80 c 0
 370 80 430 130 430 197 c 1
 510 197 l 1
 510 86 414 0 300 0 c 0
 186 0 90 86 90 197 c 2
 90 510 l 2
 90 621 186 707 300 707 c 0
 414 707 510 621 510 510 c 1
EndSplineSet
EndChar

StartChar: uni266D
Encoding: 196 9837 196
Width: 544
Flags: HW
HStem: 482 64<210.501 327.24> 734 20G<90 154>
VStem: 90 64<91 430.54 497 754> 369 85<282.566 436.719>
LayerCount: 2
Fore
SplineSet
154 406 m 1
 154 91 l 1
 255 162 369 239 369 361 c 0
 369 424 330 482 272 482 c 0
 223 482 186 444 154 406 c 1
90 754 m 1
 154 754 l 1
 154 497 l 1
 188 526 227 546 272 546 c 0
 373 546 454 463 454 361 c 0
 454 223 248 79 90 -32 c 1
 90 754 l 1
EndSplineSet
EndChar

StartChar: uni266E
Encoding: 197 9838 197
Width: 544
Flags: HW
HStem: -220 21G<390 454> 0 21G<90 164.074> 526 20G<379.926 454> 734 20G<90 154>
VStem: 90 64<113 369 465 754> 390 64<-220 81 177 433>
LayerCount: 2
Fore
SplineSet
390 81 m 1
 90 0 l 1
 90 754 l 1
 154 754 l 1
 154 465 l 1
 454 546 l 1
 454 -220 l 1
 390 -220 l 1
 390 81 l 1
390 177 m 1
 390 433 l 1
 154 369 l 1
 154 113 l 1
 390 177 l 1
EndSplineSet
EndChar

StartChar: uni266F
Encoding: 198 9839 198
Width: 544
Flags: HW
HStem: -220 21G<149 213> 0 21G<90 149> 526 20G<395 454> 734 20G<331 395>
VStem: 149 64<-220 16 129 368 481 688> 331 64<-154 65 178 417 530 754>
LayerCount: 2
Fore
SplineSet
331 161 m 1
 331 417 l 1
 213 385 l 1
 213 129 l 1
 331 161 l 1
395 -154 m 1
 331 -154 l 1
 331 65 l 1
 213 33 l 1
 213 -220 l 1
 149 -220 l 1
 149 16 l 1
 90 0 l 1
 90 96 l 1
 149 112 l 1
 149 368 l 1
 90 352 l 1
 90 448 l 1
 149 464 l 1
 149 688 l 1
 213 688 l 1
 213 481 l 1
 331 513 l 1
 331 754 l 1
 395 754 l 1
 395 530 l 1
 454 546 l 1
 454 450 l 1
 395 434 l 1
 395 178 l 1
 454 194 l 1
 454 98 l 1
 395 82 l 1
 395 -154 l 1
EndSplineSet
EndChar

StartChar: aleph
Encoding: 199 8501 199
Width: 784
Flags: HW
HStem: 0 21G<90 186> 688 20G<609 694>
VStem: 90 96<0 221.498> 609 85<548.06 706>
LayerCount: 2
Fore
SplineSet
186 0 m 1
 90 0 l 1
 90 170 120 343 219 479 c 1
 165 543 119 612 90 691 c 1
 180 723 l 1
 237 567 359 452 473 332 c 1
 562 435 609 568 609 706 c 1
 694 708 l 1
 694 547 633 393 527 273 c 1
 596 195 658 113 694 15 c 1
 614 -15 l 1
 550 160 402 283 274 418 c 1
 196 298 186 146 186 0 c 1
EndSplineSet
EndChar

StartChar: uni2136
Encoding: 200 8502 200
Width: 784
Flags: HW
HStem: 0 93<102 539 619 682> 614 93<162 489.758>
VStem: 539 80<93 568.17>
LayerCount: 2
Fore
SplineSet
162 707 m 1
 395 707 l 2
 563 707 619 642 619 471 c 2
 619 93 l 1
 706 93 l 1
 682 0 l 1
 78 0 l 1
 102 93 l 1
 539 93 l 1
 539 471 l 2
 539 577 501 614 395 614 c 2
 138 614 l 1
 162 707 l 1
EndSplineSet
EndChar

StartChar: uni2137
Encoding: 201 8503 201
Width: 604
Flags: HW
HStem: 0 84<97 202.622>
LayerCount: 2
Fore
SplineSet
97 84 m 1
 143 84 l 2
 194 84 213 110 232 144 c 2
 349 346 l 1
 344 388 339 430 333 471 c 0
 327 514 315 558 278 579 c 2
 172 640 l 1
 220 723 l 1
 326 662 l 2
 390 625 402 545 413 471 c 0
 435 312 451 149 514 0 c 1
 429 0 l 1
 396 78 378 160 364 244 c 1
 287 112 l 2
 254 54 229 0 143 0 c 2
 83 0 l 1
 97 84 l 1
EndSplineSet
EndChar

StartChar: uni2138
Encoding: 202 8504 202
Width: 724
Flags: HW
HStem: 0 21G<445 525> 614 93<102 445 525 622>
VStem: 445 80<0 614>
LayerCount: 2
Fore
SplineSet
102 707 m 1
 646 707 l 1
 622 614 l 1
 525 614 l 1
 525 0 l 1
 445 0 l 1
 445 614 l 1
 78 614 l 1
 102 707 l 1
EndSplineSet
EndChar

StartChar: weierstrass
Encoding: 203 8472 203
Width: 668
Flags: HW
HStem: -220 64<72.5584 142.804> 0 64<313.723 434.852> 455 64<359.996 510.288> 526 20G<151 197.273>
VStem: -8 64<-140.443 55.9411> 163 84<-123.792 8.30082> 527 86<240.029 438.7>
LayerCount: 2
Fore
SplineSet
117 -156 m 0
 140 -156 163 -102 163 -64 c 0
 163 -51 161 -39 157 -27 c 0
 144 16 112 47 85 81 c 1
 72 42 56 -20 56 -69 c 0
 56 -118 71 -156 117 -156 c 0
-8 -72 m 0
 -8 -52 -4 25 45 147 c 1
 34 175 29 207 29 239 c 0
 29 375 112 546 190 546 c 1
 210 491 l 1
 167 491 119 371 114 281 c 1
 202 419 328 519 474 519 c 0
 554 519 613 447 613 334 c 0
 613 165 487 0 364 0 c 0
 340 0 316 5 296 15 c 1
 320 78 l 1
 337 69 357 64 378 64 c 0
 410 64 443 84 463 114 c 0
 497 163 527 339 527 380 c 0
 527 393 524 455 461 455 c 0
 316 455 199 337 127 186 c 1
 159 110 247 60 247 -39 c 0
 247 -126 175 -220 103 -220 c 0
 26 -220 -8 -154 -8 -72 c 0
EndSplineSet
EndChar
